<svg width="351" height="326" viewBox="0 0 351 326" fill="none" xmlns="http://www.w3.org/2000/svg">
<g clip-path="url(#clip0_28_755)">
<rect width="350.97" height="326" rx="7.39858" fill="#FEFEFE"/>
<path d="M28.8649 24.5078C23.6502 24.5078 19.4213 28.7533 19.4213 33.9904C19.4191 35.978 20.0417 37.916 21.201 39.5306C22.3602 41.1451 23.9975 42.3545 25.8815 42.9878C26.3538 43.0752 26.5262 42.7824 26.5262 42.5309C26.5262 42.3054 26.5179 41.7092 26.5132 40.9182C23.8863 41.4908 23.3314 39.6467 23.3314 39.6467C22.9029 38.5511 22.2831 38.2595 22.2831 38.2595C21.4248 37.6716 22.3468 37.6834 22.3468 37.6834C23.2948 37.7507 23.793 38.6609 23.793 38.6609C24.636 40.1095 26.0043 39.6916 26.5427 39.4484C26.6277 38.8356 26.8721 38.4177 27.1424 38.1804C25.0457 37.9407 22.8403 37.1273 22.8403 33.4946C22.8403 32.4592 23.2087 31.6127 23.8131 30.9492C23.7151 30.7095 23.3916 29.745 23.9052 28.4404C23.9052 28.4404 24.6986 28.1854 26.5025 29.412C27.2732 29.2014 28.0684 29.0942 28.8673 29.0933C29.6662 29.0949 30.4614 29.2025 31.232 29.4132C33.0348 28.1866 33.827 28.4416 33.827 28.4416C34.3418 29.7473 34.0183 30.7107 33.9215 30.9504C34.5271 31.6139 34.8919 32.4604 34.8919 33.4958C34.8919 37.1379 32.6842 37.9396 30.5803 38.1745C30.9192 38.4673 31.2214 39.0458 31.2214 39.9301C31.2214 41.198 31.2096 42.2204 31.2096 42.5309C31.2096 42.7848 31.3796 43.0799 31.8589 42.9866C33.7411 42.3518 35.3764 41.142 36.5341 39.5278C37.6917 37.9137 38.3132 35.9768 38.3109 33.9904C38.3109 28.7533 34.082 24.5078 28.8649 24.5078Z" fill="#010068"/>
<path d="M46.8773 37.756H45.0487L47.835 29.6849H50.0341L52.8164 37.756H50.9878L48.9661 31.5293H48.903L46.8773 37.756ZM46.7631 34.5835H51.0824V35.9156H46.7631V34.5835ZM56.2096 37.8743C55.5896 37.8743 55.0562 37.7429 54.6096 37.4802C54.1656 37.2148 53.824 36.847 53.5849 36.3767C53.3485 35.9064 53.2302 35.3652 53.2302 34.753C53.2302 34.1329 53.3498 33.5891 53.5889 33.1214C53.8306 32.6511 54.1735 32.2846 54.6175 32.0219C55.0615 31.7565 55.5896 31.6238 56.2018 31.6238C56.7299 31.6238 57.1923 31.7197 57.589 31.9115C57.9857 32.1033 58.2997 32.3726 58.5309 32.7194C58.7621 33.0662 58.8895 33.4735 58.9132 33.9411H57.3289C57.2842 33.639 57.166 33.396 56.9742 33.2121C56.785 33.0255 56.5367 32.9323 56.2294 32.9323C55.9692 32.9323 55.742 33.0032 55.5476 33.1451C55.3558 33.2843 55.206 33.4879 55.0983 33.7559C54.9906 34.0239 54.9367 34.3484 54.9367 34.7293C54.9367 35.1156 54.9892 35.444 55.0943 35.7146C55.2021 35.9852 55.3531 36.1915 55.5476 36.3333C55.742 36.4752 55.9692 36.5462 56.2294 36.5462C56.4211 36.5462 56.5932 36.5067 56.7456 36.4279C56.9006 36.3491 57.0281 36.2348 57.1279 36.0851C57.2304 35.9327 57.2974 35.7501 57.3289 35.5373H58.9132C58.8869 35.9997 58.7608 36.4069 58.5348 36.759C58.3115 37.1084 58.0028 37.3816 57.6087 37.5787C57.2146 37.7757 56.7482 37.8743 56.2096 37.8743ZM59.9881 37.756V31.7027H61.5881V32.7707H61.6591C61.7852 32.416 61.9954 32.1362 62.2896 31.9312C62.5839 31.7263 62.936 31.6238 63.3458 31.6238C63.7609 31.6238 64.1143 31.7276 64.406 31.9352C64.6976 32.1401 64.892 32.4186 64.9892 32.7707H65.0523C65.1758 32.4239 65.3991 32.1467 65.7222 31.9391C66.048 31.7289 66.4329 31.6238 66.877 31.6238C67.4418 31.6238 67.9003 31.8038 68.2524 32.1638C68.6071 32.5211 68.7844 33.0281 68.7844 33.685V37.756H67.1095V34.016C67.1095 33.6797 67.0202 33.4275 66.8415 33.2594C66.6628 33.0912 66.4395 33.0071 66.1715 33.0071C65.8668 33.0071 65.629 33.1043 65.4582 33.2988C65.2874 33.4906 65.202 33.7441 65.202 34.0594V37.756H63.5744V33.9806C63.5744 33.6837 63.489 33.4472 63.3182 33.2712C63.1501 33.0951 62.9281 33.0071 62.6522 33.0071C62.4657 33.0071 62.2975 33.0544 62.1478 33.149C62.0006 33.241 61.8837 33.371 61.797 33.5392C61.7103 33.7047 61.667 33.8991 61.667 34.1224V37.756H59.9881ZM72.8693 37.8743C72.2466 37.8743 71.7106 37.7482 71.2613 37.4959C70.8147 37.2411 70.4705 36.8811 70.2288 36.4161C69.9871 35.9484 69.8662 35.3954 69.8662 34.7569C69.8662 34.1343 69.9871 33.5878 70.2288 33.1175C70.4705 32.6472 70.8107 32.2807 71.2495 32.0179C71.6909 31.7552 72.2085 31.6238 72.8023 31.6238C73.2016 31.6238 73.5734 31.6882 73.9176 31.8169C74.2644 31.9431 74.5665 32.1335 74.824 32.3884C75.0841 32.6432 75.2864 32.9638 75.4309 33.35C75.5754 33.7336 75.6477 34.1829 75.6477 34.6978V35.1589H70.5362V34.1185H74.0673C74.0673 33.8768 74.0148 33.6627 73.9097 33.4761C73.8046 33.2896 73.6588 33.1438 73.4722 33.0387C73.2883 32.9309 73.0742 32.8771 72.8299 32.8771C72.575 32.8771 72.3491 32.9362 72.152 33.0544C71.9576 33.17 71.8052 33.3264 71.6948 33.5234C71.5845 33.7178 71.528 33.9346 71.5254 34.1737V35.1629C71.5254 35.4624 71.5806 35.7212 71.6909 35.9392C71.8039 36.1573 71.9628 36.3255 72.1678 36.4437C72.3727 36.5619 72.6157 36.621 72.8969 36.621C73.0834 36.621 73.2542 36.5948 73.4092 36.5422C73.5642 36.4897 73.6969 36.4108 73.8072 36.3058C73.9176 36.2007 74.0016 36.0719 74.0594 35.9195L75.6122 36.022C75.5334 36.3951 75.3718 36.7209 75.1275 36.9994C74.8857 37.2752 74.5731 37.4907 74.1895 37.6457C73.8085 37.7981 73.3685 37.8743 72.8693 37.8743ZM85.3958 29.3065L82.7947 38.9699H81.3483L83.9494 29.3065H85.3958ZM93.0679 37.8703C92.6817 37.8703 92.3375 37.8033 92.0354 37.6693C91.7332 37.5327 91.4941 37.3317 91.3181 37.0664C91.1447 36.7984 91.058 36.4647 91.058 36.0654C91.058 35.7291 91.1197 35.4466 91.2432 35.218C91.3667 34.9895 91.5349 34.8055 91.7477 34.6663C91.9605 34.527 92.2022 34.422 92.4728 34.351C92.7461 34.2801 93.0324 34.2302 93.332 34.2013C93.684 34.1645 93.9678 34.1303 94.1832 34.0988C94.3987 34.0646 94.555 34.0147 94.6522 33.949C94.7494 33.8833 94.798 33.7861 94.798 33.6574V33.6337C94.798 33.3842 94.7192 33.191 94.5615 33.0544C94.4065 32.9178 94.1858 32.8495 93.8995 32.8495C93.5973 32.8495 93.3569 32.9165 93.1783 33.0505C92.9996 33.1818 92.8814 33.3474 92.8236 33.547L91.2708 33.4209C91.3496 33.0531 91.5046 32.7352 91.7358 32.4672C91.9671 32.1966 92.2653 31.989 92.6305 31.8445C92.9983 31.6974 93.4239 31.6238 93.9073 31.6238C94.2436 31.6238 94.5655 31.6632 94.8729 31.7421C95.1829 31.8209 95.4575 31.9431 95.6966 32.1086C95.9383 32.2741 96.1288 32.4869 96.268 32.747C96.4073 33.0045 96.4769 33.3132 96.4769 33.6732V37.756H94.8847V36.9166H94.8374C94.7402 37.1058 94.6102 37.2726 94.4473 37.4171C94.2844 37.559 94.0886 37.6707 93.86 37.7521C93.6315 37.8309 93.3674 37.8703 93.0679 37.8703ZM93.5487 36.7117C93.7957 36.7117 94.0137 36.6631 94.2029 36.5659C94.3921 36.466 94.5405 36.332 94.6483 36.1639C94.756 35.9957 94.8098 35.8052 94.8098 35.5924V34.95C94.7573 34.9842 94.685 35.0157 94.5931 35.0446C94.5037 35.0709 94.4026 35.0959 94.2896 35.1195C94.1766 35.1405 94.0637 35.1602 93.9507 35.1786C93.8377 35.1944 93.7353 35.2088 93.6433 35.222C93.4462 35.2509 93.2742 35.2969 93.127 35.3599C92.9799 35.423 92.8656 35.5084 92.7842 35.6161C92.7027 35.7212 92.662 35.8525 92.662 36.0102C92.662 36.2388 92.7447 36.4135 92.9103 36.5343C93.0784 36.6526 93.2912 36.7117 93.5487 36.7117ZM97.7794 40.0261V31.7027H99.4346V32.7194H99.5095C99.583 32.5565 99.6895 32.391 99.8287 32.2229C99.9706 32.0521 100.154 31.9102 100.38 31.7972C100.609 31.6816 100.893 31.6238 101.232 31.6238C101.673 31.6238 102.08 31.7394 102.453 31.9706C102.826 32.1992 103.125 32.5447 103.348 33.0071C103.571 33.4669 103.683 34.0436 103.683 34.7372C103.683 35.4125 103.574 35.9826 103.356 36.4476C103.14 36.91 102.846 37.2608 102.473 37.4999C102.103 37.7363 101.688 37.8546 101.228 37.8546C100.902 37.8546 100.625 37.8007 100.396 37.693C100.17 37.5853 99.985 37.45 99.8405 37.2871C99.696 37.1215 99.5857 36.9547 99.5095 36.7866H99.4582V40.0261H97.7794ZM99.4228 34.7293C99.4228 35.0893 99.4727 35.4033 99.5725 35.6713C99.6724 35.9392 99.8169 36.1481 100.006 36.2979C100.195 36.445 100.425 36.5186 100.696 36.5186C100.969 36.5186 101.2 36.4437 101.389 36.2939C101.579 36.1415 101.722 35.9314 101.819 35.6634C101.919 35.3928 101.969 35.0814 101.969 34.7293C101.969 34.3799 101.92 34.0725 101.823 33.8072C101.726 33.5418 101.582 33.3342 101.393 33.1845C101.204 33.0347 100.972 32.9598 100.696 32.9598C100.422 32.9598 100.191 33.0321 100.002 33.1766C99.8156 33.3211 99.6724 33.526 99.5725 33.7914C99.4727 34.0568 99.4228 34.3694 99.4228 34.7293ZM104.802 40.0261V31.7027H106.457V32.7194H106.532C106.606 32.5565 106.712 32.391 106.852 32.2229C106.993 32.0521 107.177 31.9102 107.403 31.7972C107.632 31.6816 107.916 31.6238 108.255 31.6238C108.696 31.6238 109.103 31.7394 109.476 31.9706C109.849 32.1992 110.148 32.5447 110.371 33.0071C110.594 33.4669 110.706 34.0436 110.706 34.7372C110.706 35.4125 110.597 35.9826 110.379 36.4476C110.163 36.91 109.869 37.2608 109.496 37.4999C109.126 37.7363 108.71 37.8546 108.251 37.8546C107.925 37.8546 107.648 37.8007 107.419 37.693C107.193 37.5853 107.008 37.45 106.863 37.2871C106.719 37.1215 106.609 36.9547 106.532 36.7866H106.481V40.0261H104.802ZM106.446 34.7293C106.446 35.0893 106.496 35.4033 106.595 35.6713C106.695 35.9392 106.84 36.1481 107.029 36.2979C107.218 36.445 107.448 36.5186 107.719 36.5186C107.992 36.5186 108.223 36.4437 108.412 36.2939C108.601 36.1415 108.745 35.9314 108.842 35.6634C108.942 35.3928 108.992 35.0814 108.992 34.7293C108.992 34.3799 108.943 34.0725 108.846 33.8072C108.749 33.5418 108.605 33.3342 108.416 33.1845C108.227 33.0347 107.994 32.9598 107.719 32.9598C107.445 32.9598 107.214 33.0321 107.025 33.1766C106.838 33.3211 106.695 33.526 106.595 33.7914C106.496 34.0568 106.446 34.3694 106.446 34.7293ZM115.597 33.7756V35.1077H111.916V33.7756H115.597ZM125.239 31.7027L123.123 37.756H121.231L119.115 31.7027H120.888L122.146 36.0338H122.209L123.462 31.7027H125.239ZM126.083 37.756V36.5264L128.956 33.8663C129.2 33.6298 129.405 33.417 129.57 33.2278C129.739 33.0387 129.866 32.8534 129.953 32.6721C130.039 32.4882 130.083 32.2899 130.083 32.0771C130.083 31.8406 130.029 31.637 129.921 31.4662C129.814 31.2928 129.666 31.1601 129.48 31.0682C129.293 30.9736 129.082 30.9263 128.845 30.9263C128.598 30.9263 128.383 30.9762 128.199 31.076C128.015 31.1759 127.873 31.3191 127.773 31.5056C127.674 31.6921 127.624 31.9142 127.624 32.1716H126.004C126.004 31.6435 126.123 31.1851 126.363 30.7962C126.602 30.4074 126.937 30.1065 127.367 29.8937C127.798 29.6809 128.295 29.5745 128.857 29.5745C129.435 29.5745 129.938 29.677 130.367 29.8819C130.797 30.0842 131.132 30.3653 131.372 30.7253C131.611 31.0852 131.73 31.4977 131.73 31.9628C131.73 32.2675 131.67 32.5684 131.549 32.8653C131.431 33.1621 131.219 33.4919 130.914 33.8544C130.61 34.2144 130.18 34.6466 129.626 35.151L128.447 36.3058V36.3609H131.837V37.756H126.083Z" fill="black"/>
<line y1="81.1532" x2="397.674" y2="81.1532" stroke="black" stroke-width="0.462411"/>
<line y1="80.922" x2="105.892" y2="80.922" stroke="#010068" stroke-width="0.924823"/>
<path d="M39.7396 72.3503V71.4625H40.6089V66.7644H39.7396V65.8766H42.3291C43.1923 65.8766 43.852 66.0955 44.3082 66.5332C44.7706 66.971 45.0018 67.6307 45.0018 68.5123V69.7238C45.0018 70.6055 44.7706 71.2652 44.3082 71.703C43.852 72.1345 43.1923 72.3503 42.3291 72.3503H39.7396ZM41.617 71.444H42.3384C42.8994 71.444 43.3156 71.3022 43.5869 71.0186C43.8581 70.735 43.9938 70.3126 43.9938 69.7516V68.4753C43.9938 67.9081 43.8581 67.4858 43.5869 67.2083C43.3156 66.9309 42.8994 66.7922 42.3384 66.7922H41.617V71.444ZM48.2483 72.4798C47.7859 72.4798 47.3821 72.3843 47.0368 72.1931C46.6915 71.9958 46.4203 71.7215 46.223 71.37C46.0318 71.0124 45.9363 70.5993 45.9363 70.1308V70.0198C45.9363 69.545 46.0318 69.132 46.223 68.7805C46.4141 68.4229 46.6792 68.1486 47.0183 67.9574C47.3636 67.7601 47.7613 67.6615 48.2113 67.6615C48.6491 67.6615 49.0313 67.7601 49.3581 67.9574C49.6911 68.1486 49.95 68.4168 50.135 68.762C50.3199 69.1073 50.4124 69.5111 50.4124 69.9735V70.3342H46.9073C46.9197 70.735 47.0522 71.0556 47.305 71.296C47.564 71.5303 47.8846 71.6475 48.2668 71.6475C48.6244 71.6475 48.8926 71.5673 49.0714 71.407C49.2564 71.2467 49.3982 71.0618 49.4968 70.8521L50.2829 71.2591C50.1966 71.4317 50.0702 71.6136 49.9038 71.8047C49.7435 71.9958 49.5308 72.1561 49.2656 72.2856C49.0005 72.4151 48.6614 72.4798 48.2483 72.4798ZM46.9166 69.6036H49.4414C49.4167 69.2584 49.2934 68.9902 49.0714 68.799C48.8495 68.6017 48.5597 68.5031 48.2021 68.5031C47.8445 68.5031 47.5516 68.6017 47.3235 68.799C47.1015 68.9902 46.9659 69.2584 46.9166 69.6036ZM51.5591 74.2V67.791H52.4931V68.4476H52.6411C52.7582 68.2441 52.934 68.0622 53.1682 67.9019C53.4087 67.7416 53.7509 67.6615 54.1948 67.6615C54.5771 67.6615 54.9254 67.754 55.2398 67.9389C55.5605 68.1239 55.8163 68.3921 56.0074 68.7435C56.2047 69.0888 56.3034 69.5081 56.3034 70.0013V70.14C56.3034 70.6333 56.2078 71.0556 56.0167 71.407C55.8256 71.7523 55.5697 72.0174 55.2491 72.2024C54.9285 72.3873 54.5771 72.4798 54.1948 72.4798C53.8989 72.4798 53.6492 72.4428 53.4457 72.3688C53.2422 72.2949 53.0788 72.2024 52.9555 72.0914C52.8322 71.9742 52.7336 71.854 52.6596 71.7307H52.5116V74.2H51.5591ZM53.9173 71.6475C54.3366 71.6475 54.6788 71.5149 54.9439 71.2498C55.209 70.9847 55.3416 70.6055 55.3416 70.1123V70.029C55.3416 69.542 55.2059 69.1659 54.9347 68.9008C54.6695 68.6356 54.3304 68.5031 53.9173 68.5031C53.5104 68.5031 53.1713 68.6356 52.9 68.9008C52.6349 69.1659 52.5024 69.542 52.5024 70.029V70.1123C52.5024 70.6055 52.6349 70.9847 52.9 71.2498C53.1713 71.5149 53.5104 71.6475 53.9173 71.6475ZM57.4837 72.3503V65.8766H58.4363V72.3503H57.4837ZM61.9863 72.4798C61.53 72.4798 61.1231 72.3873 60.7655 72.2024C60.4141 72.0112 60.1366 71.74 59.9332 71.3885C59.7297 71.0371 59.628 70.6209 59.628 70.14V70.0013C59.628 69.5204 59.7297 69.1073 59.9332 68.762C60.1366 68.4106 60.4141 68.1393 60.7655 67.9482C61.1231 67.7571 61.53 67.6615 61.9863 67.6615C62.4425 67.6615 62.8495 67.7571 63.207 67.9482C63.5646 68.1393 63.8452 68.4106 64.0486 68.762C64.2521 69.1073 64.3538 69.5204 64.3538 70.0013V70.14C64.3538 70.6209 64.2521 71.0371 64.0486 71.3885C63.8452 71.74 63.5646 72.0112 63.207 72.2024C62.8495 72.3873 62.4425 72.4798 61.9863 72.4798ZM61.9863 71.629C62.4055 71.629 62.7446 71.4964 63.0036 71.2313C63.2687 70.96 63.4013 70.587 63.4013 70.1123V70.029C63.4013 69.5543 63.2718 69.1844 63.0128 68.9192C62.7539 68.648 62.4117 68.5123 61.9863 68.5123C61.5732 68.5123 61.2341 68.648 60.969 68.9192C60.71 69.1844 60.5806 69.5543 60.5806 70.029V70.1123C60.5806 70.587 60.71 70.96 60.969 71.2313C61.2341 71.4964 61.5732 71.629 61.9863 71.629ZM66.0669 74.2V73.3676H68.6102C68.7828 73.3676 68.8691 73.2752 68.8691 73.0902V71.6845H68.7212C68.6657 71.8078 68.5794 71.928 68.4622 72.0452C68.3512 72.1561 68.2002 72.2486 68.009 72.3226C67.8179 72.3966 67.5775 72.4336 67.2877 72.4336C66.9424 72.4336 66.6341 72.3565 66.3629 72.2024C66.0916 72.0482 65.8789 71.8294 65.7247 71.5457C65.5706 71.2621 65.4935 70.9261 65.4935 70.5377V67.791H66.4461V70.4637C66.4461 70.8583 66.5447 71.1512 66.742 71.3423C66.9393 71.5272 67.2137 71.6197 67.5651 71.6197C67.9536 71.6197 68.2649 71.4903 68.4992 71.2313C68.7397 70.9724 68.8599 70.5963 68.8599 70.103V67.791H69.8125V73.2844C69.8125 73.5619 69.7292 73.7838 69.5627 73.9503C69.4024 74.1168 69.1805 74.2 68.8969 74.2H66.0669ZM73.0887 72.4798C72.5092 72.4798 72.0282 72.3503 71.646 72.0914C71.2637 71.8324 71.0294 71.4409 70.9431 70.9169L71.8309 70.7042C71.8803 70.9569 71.9635 71.1573 72.0807 71.3053C72.1978 71.4533 72.3427 71.5581 72.5153 71.6197C72.6941 71.6814 72.8852 71.7122 73.0887 71.7122C73.3908 71.7122 73.622 71.6536 73.7823 71.5365C73.9488 71.4194 74.032 71.2683 74.032 71.0833C74.032 70.8984 73.955 70.7627 73.8008 70.6764C73.6467 70.5901 73.4186 70.5192 73.1165 70.4637L72.802 70.4082C72.4937 70.3527 72.2132 70.2726 71.9604 70.1678C71.7076 70.0629 71.5073 69.9181 71.3593 69.7331C71.2113 69.5481 71.1373 69.3108 71.1373 69.021C71.1373 68.5894 71.2976 68.2565 71.6182 68.0222C71.9388 67.7817 72.3643 67.6615 72.8945 67.6615C73.4062 67.6615 73.8255 67.7786 74.1523 68.0129C74.4852 68.241 74.701 68.5524 74.7996 68.947L73.9118 69.1967C73.8563 68.9192 73.7392 68.725 73.5604 68.6141C73.3816 68.4969 73.1596 68.4383 72.8945 68.4383C72.6355 68.4383 72.4321 68.4877 72.2841 68.5863C72.1361 68.6788 72.0622 68.8114 72.0622 68.984C72.0622 69.169 72.1331 69.3046 72.2749 69.3909C72.4228 69.4772 72.6201 69.542 72.8668 69.5851L73.1904 69.6406C73.5172 69.6961 73.8162 69.7732 74.0875 69.8718C74.3588 69.9705 74.5715 70.1123 74.7256 70.2972C74.8859 70.4822 74.9661 70.7288 74.9661 71.0371C74.9661 71.4933 74.7965 71.8479 74.4574 72.1006C74.1183 72.3534 73.6621 72.4798 73.0887 72.4798Z" fill="black"/>
<path d="M160.214 72.3503V65.8766H162.933C163.334 65.8766 163.685 65.9475 163.987 66.0893C164.296 66.2249 164.533 66.4222 164.699 66.6812C164.872 66.9401 164.958 67.2484 164.958 67.606V67.7077C164.958 68.1147 164.86 68.4414 164.662 68.688C164.471 68.9285 164.237 69.098 163.96 69.1967V69.3447C164.194 69.357 164.382 69.4371 164.524 69.5851C164.666 69.7269 164.736 69.9335 164.736 70.2048V72.3503H163.728V70.3435C163.728 70.177 163.685 70.0445 163.599 69.9458C163.513 69.8472 163.374 69.7978 163.183 69.7978H161.213V72.3503H160.214ZM161.213 68.8915H162.822C163.18 68.8915 163.457 68.8021 163.654 68.6233C163.852 68.4383 163.95 68.1886 163.95 67.8742V67.8002C163.95 67.4858 163.852 67.2392 163.654 67.0604C163.463 66.8754 163.186 66.7829 162.822 66.7829H161.213V68.8915ZM168.175 72.4798C167.713 72.4798 167.309 72.3843 166.964 72.1931C166.618 71.9958 166.347 71.7215 166.15 71.37C165.959 71.0124 165.863 70.5993 165.863 70.1308V70.0198C165.863 69.545 165.959 69.132 166.15 68.7805C166.341 68.4229 166.606 68.1486 166.945 67.9574C167.291 67.7601 167.688 67.6615 168.138 67.6615C168.576 67.6615 168.958 67.7601 169.285 67.9574C169.618 68.1486 169.877 68.4168 170.062 68.762C170.247 69.1073 170.339 69.5111 170.339 69.9735V70.3342H166.834C166.847 70.735 166.979 71.0556 167.232 71.296C167.491 71.5303 167.812 71.6475 168.194 71.6475C168.551 71.6475 168.82 71.5673 168.998 71.407C169.183 71.2467 169.325 71.0618 169.424 70.8521L170.21 71.2591C170.124 71.4317 169.997 71.6136 169.831 71.8047C169.67 71.9958 169.458 72.1561 169.193 72.2856C168.927 72.4151 168.588 72.4798 168.175 72.4798ZM166.844 69.6036H169.368C169.344 69.2584 169.22 68.9902 168.998 68.799C168.776 68.6017 168.487 68.5031 168.129 68.5031C167.771 68.5031 167.479 68.6017 167.25 68.799C167.028 68.9902 166.893 69.2584 166.844 69.6036ZM175.056 74.2V71.7307H174.908C174.84 71.854 174.741 71.9742 174.612 72.0914C174.482 72.2024 174.316 72.2949 174.112 72.3688C173.915 72.4428 173.669 72.4798 173.373 72.4798C172.99 72.4798 172.639 72.3873 172.318 72.2024C171.998 72.0174 171.742 71.7523 171.551 71.407C171.36 71.0556 171.264 70.6333 171.264 70.14V70.0013C171.264 69.5081 171.36 69.0888 171.551 68.7435C171.748 68.3921 172.007 68.1239 172.328 67.9389C172.648 67.754 172.997 67.6615 173.373 67.6615C173.817 67.6615 174.156 67.7416 174.39 67.9019C174.63 68.0622 174.809 68.2441 174.926 68.4476H175.074V67.791H176.008V74.2H175.056ZM173.641 71.6475C174.06 71.6475 174.402 71.5149 174.667 71.2498C174.932 70.9847 175.065 70.6055 175.065 70.1123V70.029C175.065 69.542 174.929 69.1659 174.658 68.9008C174.393 68.6356 174.054 68.5031 173.641 68.5031C173.234 68.5031 172.895 68.6356 172.624 68.9008C172.358 69.1659 172.226 69.542 172.226 70.029V70.1123C172.226 70.6055 172.358 70.9847 172.624 71.2498C172.895 71.5149 173.234 71.6475 173.641 71.6475ZM179.159 72.4336C178.813 72.4336 178.505 72.3565 178.234 72.2024C177.962 72.0482 177.75 71.8294 177.596 71.5457C177.441 71.2621 177.364 70.923 177.364 70.5284V67.791H178.317V70.4637C178.317 70.8583 178.416 71.1512 178.613 71.3423C178.81 71.5272 179.085 71.6197 179.436 71.6197C179.824 71.6197 180.136 71.4903 180.37 71.2313C180.611 70.9662 180.731 70.587 180.731 70.0938V67.791H181.683V72.3503H180.749V71.666H180.601C180.515 71.8509 180.361 72.0267 180.139 72.1931C179.917 72.3534 179.59 72.4336 179.159 72.4336ZM185.182 72.4798C184.719 72.4798 184.315 72.3843 183.97 72.1931C183.625 71.9958 183.353 71.7215 183.156 71.37C182.965 71.0124 182.869 70.5993 182.869 70.1308V70.0198C182.869 69.545 182.965 69.132 183.156 68.7805C183.347 68.4229 183.612 68.1486 183.952 67.9574C184.297 67.7601 184.694 67.6615 185.145 67.6615C185.582 67.6615 185.965 67.7601 186.291 67.9574C186.624 68.1486 186.883 68.4168 187.068 68.762C187.253 69.1073 187.346 69.5111 187.346 69.9735V70.3342H183.841C183.853 70.735 183.985 71.0556 184.238 71.296C184.497 71.5303 184.818 71.6475 185.2 71.6475C185.558 71.6475 185.826 71.5673 186.005 71.407C186.19 71.2467 186.331 71.0618 186.43 70.8521L187.216 71.2591C187.13 71.4317 187.003 71.6136 186.837 71.8047C186.677 71.9958 186.464 72.1561 186.199 72.2856C185.934 72.4151 185.595 72.4798 185.182 72.4798ZM183.85 69.6036H186.375C186.35 69.2584 186.227 68.9902 186.005 68.799C185.783 68.6017 185.493 68.5031 185.135 68.5031C184.778 68.5031 184.485 68.6017 184.257 68.799C184.035 68.9902 183.899 69.2584 183.85 69.6036ZM190.36 72.4798C189.781 72.4798 189.3 72.3503 188.918 72.0914C188.535 71.8324 188.301 71.4409 188.215 70.9169L189.103 70.7042C189.152 70.9569 189.235 71.1573 189.352 71.3053C189.469 71.4533 189.614 71.5581 189.787 71.6197C189.966 71.6814 190.157 71.7122 190.36 71.7122C190.663 71.7122 190.894 71.6536 191.054 71.5365C191.22 71.4194 191.304 71.2683 191.304 71.0833C191.304 70.8984 191.227 70.7627 191.073 70.6764C190.918 70.5901 190.69 70.5192 190.388 70.4637L190.074 70.4082C189.765 70.3527 189.485 70.2726 189.232 70.1678C188.979 70.0629 188.779 69.9181 188.631 69.7331C188.483 69.5481 188.409 69.3108 188.409 69.021C188.409 68.5894 188.569 68.2565 188.89 68.0222C189.211 67.7817 189.636 67.6615 190.166 67.6615C190.678 67.6615 191.097 67.7786 191.424 68.0129C191.757 68.241 191.973 68.5524 192.071 68.947L191.183 69.1967C191.128 68.9192 191.011 68.725 190.832 68.6141C190.653 68.4969 190.431 68.4383 190.166 68.4383C189.907 68.4383 189.704 68.4877 189.556 68.5863C189.408 68.6788 189.334 68.8114 189.334 68.984C189.334 69.169 189.405 69.3046 189.547 69.3909C189.695 69.4772 189.892 69.542 190.138 69.5851L190.462 69.6406C190.789 69.6961 191.088 69.7732 191.359 69.8718C191.63 69.9705 191.843 70.1123 191.997 70.2972C192.158 70.4822 192.238 70.7288 192.238 71.0371C192.238 71.4933 192.068 71.8479 191.729 72.1006C191.39 72.3534 190.934 72.4798 190.36 72.4798ZM194.963 72.3503C194.685 72.3503 194.463 72.2671 194.297 72.1006C194.137 71.9342 194.056 71.7122 194.056 71.4348V68.5956H192.799V67.791H194.056V66.2835H195.009V67.791H196.368V68.5956H195.009V71.2683C195.009 71.4533 195.095 71.5457 195.268 71.5457H196.221V72.3503H194.963ZM199.356 72.4798C198.776 72.4798 198.295 72.3503 197.913 72.0914C197.531 71.8324 197.296 71.4409 197.21 70.9169L198.098 70.7042C198.147 70.9569 198.231 71.1573 198.348 71.3053C198.465 71.4533 198.61 71.5581 198.782 71.6197C198.961 71.6814 199.152 71.7122 199.356 71.7122C199.658 71.7122 199.889 71.6536 200.049 71.5365C200.216 71.4194 200.299 71.2683 200.299 71.0833C200.299 70.8984 200.222 70.7627 200.068 70.6764C199.914 70.5901 199.686 70.5192 199.383 70.4637L199.069 70.4082C198.761 70.3527 198.48 70.2726 198.227 70.1678C197.975 70.0629 197.774 69.9181 197.626 69.7331C197.478 69.5481 197.404 69.3108 197.404 69.021C197.404 68.5894 197.565 68.2565 197.885 68.0222C198.206 67.7817 198.631 67.6615 199.162 67.6615C199.673 67.6615 200.093 67.7786 200.419 68.0129C200.752 68.241 200.968 68.5524 201.067 68.947L200.179 69.1967C200.123 68.9192 200.006 68.725 199.827 68.6141C199.649 68.4969 199.427 68.4383 199.162 68.4383C198.903 68.4383 198.699 68.4877 198.551 68.5863C198.403 68.6788 198.329 68.8114 198.329 68.984C198.329 69.169 198.4 69.3046 198.542 69.3909C198.69 69.4772 198.887 69.542 199.134 69.5851L199.457 69.6406C199.784 69.6961 200.083 69.7732 200.355 69.8718C200.626 69.9705 200.839 70.1123 200.993 70.2972C201.153 70.4822 201.233 70.7288 201.233 71.0371C201.233 71.4933 201.064 71.8479 200.724 72.1006C200.385 72.3534 199.929 72.4798 199.356 72.4798Z" fill="black"/>
<path d="M286.448 72.3503V65.8766H288.326L289.741 71.6845H289.889L291.304 65.8766H293.181V72.3503H292.21V66.5794H292.062L290.656 72.3503H288.973L287.567 66.5794H287.419V72.3503H286.448ZM296.649 72.4798C296.187 72.4798 295.783 72.3843 295.438 72.1931C295.092 71.9958 294.821 71.7215 294.624 71.37C294.433 71.0124 294.337 70.5993 294.337 70.1308V70.0198C294.337 69.545 294.433 69.132 294.624 68.7805C294.815 68.4229 295.08 68.1486 295.419 67.9574C295.764 67.7601 296.162 67.6615 296.612 67.6615C297.05 67.6615 297.432 67.7601 297.759 67.9574C298.092 68.1486 298.351 68.4168 298.536 68.762C298.721 69.1073 298.813 69.5111 298.813 69.9735V70.3342H295.308C295.321 70.735 295.453 71.0556 295.706 71.296C295.965 71.5303 296.285 71.6475 296.668 71.6475C297.025 71.6475 297.293 71.5673 297.472 71.407C297.657 71.2467 297.799 71.0618 297.898 70.8521L298.684 71.2591C298.597 71.4317 298.471 71.6136 298.305 71.8047C298.144 71.9958 297.932 72.1561 297.667 72.2856C297.401 72.4151 297.062 72.4798 296.649 72.4798ZM295.317 69.6036H297.842C297.818 69.2584 297.694 68.9902 297.472 68.799C297.25 68.6017 296.961 68.5031 296.603 68.5031C296.245 68.5031 295.953 68.6017 295.724 68.799C295.502 68.9902 295.367 69.2584 295.317 69.6036ZM301.499 72.3503C301.222 72.3503 301 72.2671 300.833 72.1006C300.673 71.9342 300.593 71.7122 300.593 71.4348V68.5956H299.335V67.791H300.593V66.2835H301.545V67.791H302.905V68.5956H301.545V71.2683C301.545 71.4533 301.632 71.5457 301.804 71.5457H302.757V72.3503H301.499ZM304.024 72.3503V67.791H304.958V68.3274H305.106C305.18 68.1362 305.297 67.9975 305.458 67.9112C305.624 67.8187 305.827 67.7725 306.068 67.7725H306.614V68.6326H306.031C305.723 68.6326 305.47 68.7189 305.273 68.8915C305.075 69.058 304.977 69.3169 304.977 69.6684V72.3503H304.024ZM307.601 72.3503V67.791H308.553V72.3503H307.601ZM308.081 67.1713C307.896 67.1713 307.739 67.1128 307.61 66.9956C307.486 66.8723 307.425 66.7151 307.425 66.524C307.425 66.3328 307.486 66.1787 307.61 66.0615C307.739 65.9382 307.896 65.8766 308.081 65.8766C308.273 65.8766 308.43 65.9382 308.553 66.0615C308.676 66.1787 308.738 66.3328 308.738 66.524C308.738 66.7151 308.676 66.8723 308.553 66.9956C308.43 67.1128 308.273 67.1713 308.081 67.1713ZM312.085 72.4798C311.647 72.4798 311.249 72.3873 310.892 72.2024C310.54 72.0174 310.26 71.7492 310.05 71.3978C309.847 71.0463 309.745 70.624 309.745 70.1308V70.0105C309.745 69.5173 309.847 69.098 310.05 68.7528C310.26 68.4013 310.54 68.1331 310.892 67.9482C311.249 67.7571 311.647 67.6615 312.085 67.6615C312.522 67.6615 312.895 67.7416 313.204 67.9019C313.512 68.0622 313.759 68.275 313.944 68.5401C314.135 68.8052 314.258 69.098 314.313 69.4187L313.389 69.6129C313.358 69.4094 313.293 69.2244 313.194 69.058C313.096 68.8915 312.957 68.7589 312.778 68.6603C312.599 68.5617 312.374 68.5123 312.103 68.5123C311.838 68.5123 311.598 68.574 311.382 68.6973C311.172 68.8144 311.006 68.9871 310.882 69.2152C310.759 69.4371 310.697 69.7084 310.697 70.029V70.1123C310.697 70.4329 310.759 70.7072 310.882 70.9354C311.006 71.1635 311.172 71.3361 311.382 71.4533C311.598 71.5704 311.838 71.629 312.103 71.629C312.504 71.629 312.809 71.5272 313.019 71.3238C313.228 71.1142 313.361 70.849 313.416 70.5284L314.341 70.7412C314.267 71.0556 314.135 71.3454 313.944 71.6105C313.759 71.8756 313.512 72.0883 313.204 72.2486C312.895 72.4027 312.522 72.4798 312.085 72.4798ZM317.308 72.4798C316.728 72.4798 316.248 72.3503 315.865 72.0914C315.483 71.8324 315.249 71.4409 315.162 70.9169L316.05 70.7042C316.1 70.9569 316.183 71.1573 316.3 71.3053C316.417 71.4533 316.562 71.5581 316.735 71.6197C316.913 71.6814 317.105 71.7122 317.308 71.7122C317.61 71.7122 317.841 71.6536 318.002 71.5365C318.168 71.4194 318.251 71.2683 318.251 71.0833C318.251 70.8984 318.174 70.7627 318.02 70.6764C317.866 70.5901 317.638 70.5192 317.336 70.4637L317.021 70.4082C316.713 70.3527 316.433 70.2726 316.18 70.1678C315.927 70.0629 315.727 69.9181 315.579 69.7331C315.431 69.5481 315.357 69.3108 315.357 69.021C315.357 68.5894 315.517 68.2565 315.838 68.0222C316.158 67.7817 316.584 67.6615 317.114 67.6615C317.626 67.6615 318.045 67.7786 318.372 68.0129C318.704 68.241 318.92 68.5524 319.019 68.947L318.131 69.1967C318.076 68.9192 317.958 68.725 317.78 68.6141C317.601 68.4969 317.379 68.4383 317.114 68.4383C316.855 68.4383 316.651 68.4877 316.503 68.5863C316.355 68.6788 316.281 68.8114 316.281 68.984C316.281 69.169 316.352 69.3046 316.494 69.3909C316.642 69.4772 316.839 69.542 317.086 69.5851L317.41 69.6406C317.737 69.6961 318.036 69.7732 318.307 69.8718C318.578 69.9705 318.791 70.1123 318.945 70.2972C319.105 70.4822 319.185 70.7288 319.185 71.0371C319.185 71.4933 319.016 71.8479 318.677 72.1006C318.338 72.3534 317.881 72.4798 317.308 72.4798Z" fill="black"/>
<path d="M81.1919 130.765V122.996H84.3881C84.8764 122.996 85.3055 123.096 85.6755 123.296C86.0528 123.488 86.345 123.762 86.5522 124.117C86.7668 124.472 86.874 124.894 86.874 125.382V125.537C86.874 126.018 86.7631 126.44 86.5411 126.803C86.3265 127.158 86.0306 127.435 85.6533 127.635C85.2833 127.827 84.8616 127.923 84.3881 127.923H82.6569V130.765H81.1919ZM82.6569 126.592H84.2438C84.5916 126.592 84.8727 126.496 85.0873 126.303C85.3018 126.111 85.4091 125.848 85.4091 125.515V125.404C85.4091 125.071 85.3018 124.809 85.0873 124.616C84.8727 124.424 84.5916 124.328 84.2438 124.328H82.6569V126.592ZM90.3121 130.92C89.7646 130.92 89.28 130.805 88.8583 130.576C88.444 130.339 88.1185 130.01 87.8817 129.588C87.6523 129.159 87.5377 128.656 87.5377 128.079V127.946C87.5377 127.369 87.6523 126.869 87.8817 126.447C88.1111 126.018 88.4329 125.689 88.8472 125.46C89.2615 125.223 89.7424 125.105 90.2899 125.105C90.83 125.105 91.2998 125.227 91.6994 125.471C92.0989 125.708 92.4096 126.041 92.6316 126.47C92.8535 126.891 92.9645 127.383 92.9645 127.946V128.423H88.9582C88.973 128.8 89.1136 129.107 89.3799 129.344C89.6463 129.581 89.9718 129.699 90.3565 129.699C90.7486 129.699 91.0372 129.614 91.2222 129.444C91.4071 129.274 91.5477 129.085 91.6439 128.878L92.787 129.477C92.6834 129.67 92.5317 129.88 92.3319 130.11C92.1396 130.332 91.8806 130.524 91.5551 130.687C91.2296 130.842 90.8152 130.92 90.3121 130.92ZM88.9693 127.38H91.544C91.5144 127.062 91.3849 126.806 91.1556 126.614C90.9336 126.422 90.6414 126.325 90.2788 126.325C89.9015 126.325 89.6019 126.422 89.3799 126.614C89.158 126.806 89.0211 127.062 88.9693 127.38ZM94.2091 130.765V125.26H95.5853V125.981H95.785C95.8738 125.789 96.0403 125.608 96.2844 125.438C96.5286 125.26 96.8985 125.171 97.3942 125.171C97.8233 125.171 98.197 125.271 98.5151 125.471C98.8406 125.663 99.0922 125.933 99.2698 126.281C99.4473 126.621 99.5361 127.021 99.5361 127.48V130.765H98.1378V127.591C98.1378 127.176 98.0342 126.865 97.827 126.658C97.6273 126.451 97.3387 126.348 96.9614 126.348C96.5323 126.348 96.1993 126.492 95.9626 126.78C95.7258 127.062 95.6075 127.457 95.6075 127.968V130.765H94.2091ZM103.267 130.92C102.831 130.92 102.42 130.813 102.035 130.598C101.658 130.376 101.355 130.054 101.125 129.633C100.896 129.211 100.781 128.7 100.781 128.101V127.923C100.781 127.324 100.896 126.814 101.125 126.392C101.355 125.97 101.658 125.652 102.035 125.438C102.413 125.216 102.823 125.105 103.267 125.105C103.6 125.105 103.878 125.145 104.1 125.227C104.329 125.301 104.514 125.397 104.655 125.515C104.795 125.634 104.902 125.759 104.976 125.893H105.176V122.996H106.575V130.765H105.198V130.099H104.999C104.873 130.306 104.677 130.494 104.41 130.665C104.151 130.835 103.77 130.92 103.267 130.92ZM103.689 129.699C104.118 129.699 104.477 129.562 104.766 129.289C105.054 129.007 105.198 128.6 105.198 128.068V127.957C105.198 127.424 105.054 127.021 104.766 126.747C104.484 126.466 104.126 126.325 103.689 126.325C103.26 126.325 102.901 126.466 102.613 126.747C102.324 127.021 102.18 127.424 102.18 127.957V128.068C102.18 128.6 102.324 129.007 102.613 129.289C102.901 129.562 103.26 129.699 103.689 129.699ZM108.125 130.765V125.26H109.523V130.765H108.125ZM108.824 124.616C108.572 124.616 108.358 124.535 108.18 124.372C108.01 124.209 107.925 123.995 107.925 123.728C107.925 123.462 108.01 123.248 108.18 123.085C108.358 122.922 108.572 122.841 108.824 122.841C109.083 122.841 109.297 122.922 109.468 123.085C109.638 123.248 109.723 123.462 109.723 123.728C109.723 123.995 109.638 124.209 109.468 124.372C109.297 124.535 109.083 124.616 108.824 124.616ZM111.073 130.765V125.26H112.449V125.981H112.649C112.737 125.789 112.904 125.608 113.148 125.438C113.392 125.26 113.762 125.171 114.258 125.171C114.687 125.171 115.061 125.271 115.379 125.471C115.704 125.663 115.956 125.933 116.133 126.281C116.311 126.621 116.4 127.021 116.4 127.48V130.765H115.001V127.591C115.001 127.176 114.898 126.865 114.691 126.658C114.491 126.451 114.202 126.348 113.825 126.348C113.396 126.348 113.063 126.492 112.826 126.78C112.589 127.062 112.471 127.457 112.471 127.968V130.765H111.073ZM117.645 128.034V127.857C117.645 127.28 117.76 126.788 117.989 126.381C118.218 125.967 118.522 125.652 118.899 125.438C119.284 125.216 119.702 125.105 120.153 125.105C120.656 125.105 121.037 125.193 121.296 125.371C121.555 125.549 121.744 125.734 121.862 125.926H122.062V125.26H123.438V131.741C123.438 132.118 123.327 132.418 123.105 132.64C122.883 132.869 122.587 132.984 122.217 132.984H118.533V131.763H121.729C121.936 131.763 122.04 131.652 122.04 131.43V129.999H121.84C121.766 130.117 121.662 130.239 121.529 130.365C121.396 130.483 121.218 130.583 120.997 130.665C120.775 130.746 120.493 130.787 120.153 130.787C119.702 130.787 119.284 130.679 118.899 130.465C118.522 130.243 118.218 129.929 117.989 129.522C117.76 129.107 117.645 128.612 117.645 128.034ZM120.553 129.566C120.982 129.566 121.341 129.429 121.629 129.155C121.918 128.882 122.062 128.497 122.062 128.001V127.89C122.062 127.387 121.918 127.002 121.629 126.736C121.348 126.462 120.989 126.325 120.553 126.325C120.124 126.325 119.765 126.462 119.476 126.736C119.188 127.002 119.043 127.387 119.043 127.89V128.001C119.043 128.497 119.188 128.882 119.476 129.155C119.765 129.429 120.124 129.566 120.553 129.566Z" fill="black"/>
<path d="M81.2363 152.163V146.659H82.6125V147.258H82.8122C82.9084 147.073 83.0675 146.914 83.2894 146.781C83.5114 146.64 83.8036 146.57 84.1662 146.57C84.5583 146.57 84.8727 146.647 85.1095 146.803C85.3462 146.951 85.5275 147.147 85.6533 147.391H85.853C85.9788 147.154 86.1564 146.958 86.3857 146.803C86.6151 146.647 86.9406 146.57 87.3624 146.57C87.7027 146.57 88.0097 146.644 88.2835 146.792C88.5646 146.932 88.7866 147.151 88.9493 147.447C89.1195 147.735 89.2046 148.101 89.2046 148.545V152.163H87.8063V148.645C87.8063 148.342 87.7286 148.116 87.5732 147.968C87.4178 147.813 87.1996 147.735 86.9184 147.735C86.6003 147.735 86.3524 147.839 86.1749 148.046C86.0047 148.246 85.9196 148.534 85.9196 148.911V152.163H84.5213V148.645C84.5213 148.342 84.4436 148.116 84.2882 147.968C84.1329 147.813 83.9146 147.735 83.6335 147.735C83.3153 147.735 83.0675 147.839 82.8899 148.046C82.7197 148.246 82.6347 148.534 82.6347 148.911V152.163H81.2363ZM92.4176 152.318C92.0255 152.318 91.674 152.252 91.3633 152.119C91.0526 151.978 90.8047 151.778 90.6197 151.519C90.4422 151.253 90.3534 150.931 90.3534 150.554C90.3534 150.177 90.4422 149.862 90.6197 149.611C90.8047 149.352 91.0563 149.159 91.3744 149.034C91.6999 148.9 92.0699 148.834 92.4842 148.834H93.9935V148.523C93.9935 148.264 93.9121 148.053 93.7494 147.89C93.5866 147.72 93.3276 147.635 92.9725 147.635C92.6248 147.635 92.3658 147.717 92.1956 147.879C92.0255 148.035 91.9145 148.238 91.8627 148.49L90.5754 148.057C90.6641 147.776 90.8047 147.521 90.9971 147.291C91.1968 147.054 91.4595 146.866 91.785 146.725C92.118 146.577 92.5212 146.503 92.9947 146.503C93.7198 146.503 94.2931 146.684 94.7149 147.047C95.1366 147.41 95.3474 147.935 95.3474 148.623V150.676C95.3474 150.898 95.451 151.009 95.6582 151.009H96.1021V152.163H95.1699C94.8961 152.163 94.6705 152.097 94.4929 151.963C94.3153 151.83 94.2266 151.653 94.2266 151.431V151.42H94.0157C93.9861 151.508 93.9195 151.627 93.8159 151.775C93.7124 151.915 93.5496 152.041 93.3276 152.152C93.1057 152.263 92.8023 152.318 92.4176 152.318ZM92.6618 151.187C93.0539 151.187 93.372 151.079 93.6162 150.865C93.8677 150.643 93.9935 150.35 93.9935 149.988V149.877H92.5841C92.3251 149.877 92.1217 149.932 91.9737 150.043C91.8257 150.154 91.7517 150.31 91.7517 150.51C91.7517 150.709 91.8294 150.872 91.9848 150.998C92.1402 151.124 92.3658 151.187 92.6618 151.187ZM96.7498 149.433V149.255C96.7498 148.678 96.8644 148.186 97.0938 147.779C97.3232 147.365 97.6265 147.051 98.0038 146.836C98.3885 146.614 98.8066 146.503 99.2579 146.503C99.761 146.503 100.142 146.592 100.401 146.77C100.66 146.947 100.849 147.132 100.967 147.324H101.167V146.659H102.543V153.14C102.543 153.517 102.432 153.817 102.21 154.039C101.988 154.268 101.692 154.383 101.322 154.383H97.6376V153.162H100.834C101.041 153.162 101.145 153.051 101.145 152.829V151.397H100.945C100.871 151.516 100.767 151.638 100.634 151.764C100.501 151.882 100.323 151.982 100.101 152.063C99.8794 152.145 99.5982 152.185 99.2579 152.185C98.8066 152.185 98.3885 152.078 98.0038 151.863C97.6265 151.642 97.3232 151.327 97.0938 150.92C96.8644 150.506 96.7498 150.01 96.7498 149.433ZM99.6574 150.965C100.087 150.965 100.445 150.828 100.734 150.554C101.022 150.28 101.167 149.895 101.167 149.4V149.289C101.167 148.786 101.022 148.401 100.734 148.135C100.453 147.861 100.094 147.724 99.6574 147.724C99.2283 147.724 98.8695 147.861 98.5809 148.135C98.2924 148.401 98.1481 148.786 98.1481 149.289V149.4C98.1481 149.895 98.2924 150.28 98.5809 150.554C98.8695 150.828 99.2283 150.965 99.6574 150.965ZM104.093 152.163V144.395H105.492V152.163H104.093ZM109.549 152.318C109.002 152.318 108.517 152.204 108.095 151.974C107.681 151.738 107.355 151.408 107.119 150.987C106.889 150.558 106.775 150.055 106.775 149.477V149.344C106.775 148.767 106.889 148.268 107.119 147.846C107.348 147.417 107.67 147.088 108.084 146.858C108.499 146.622 108.979 146.503 109.527 146.503C110.067 146.503 110.537 146.625 110.936 146.869C111.336 147.106 111.647 147.439 111.869 147.868C112.091 148.29 112.202 148.782 112.202 149.344V149.821H108.195C108.21 150.199 108.351 150.506 108.617 150.743C108.883 150.979 109.209 151.098 109.594 151.098C109.986 151.098 110.274 151.013 110.459 150.842C110.644 150.672 110.785 150.484 110.881 150.276L112.024 150.876C111.92 151.068 111.769 151.279 111.569 151.508C111.377 151.73 111.118 151.923 110.792 152.085C110.467 152.241 110.052 152.318 109.549 152.318ZM108.206 148.778H110.781C110.751 148.46 110.622 148.205 110.393 148.013C110.171 147.82 109.878 147.724 109.516 147.724C109.139 147.724 108.839 147.82 108.617 148.013C108.395 148.205 108.258 148.46 108.206 148.778ZM114.438 152.163L112.684 146.659H114.171L115.448 151.142H115.647L116.924 146.659H118.411L116.657 152.163H114.438ZM119.211 149.966V148.701H122.496V149.966H119.211ZM124.024 154.383V146.659H125.4V147.324H125.6C125.726 147.11 125.922 146.921 126.188 146.758C126.454 146.588 126.835 146.503 127.331 146.503C127.775 146.503 128.186 146.614 128.563 146.836C128.94 147.051 129.244 147.369 129.473 147.791C129.702 148.212 129.817 148.723 129.817 149.322V149.5C129.817 150.099 129.702 150.609 129.473 151.031C129.244 151.453 128.94 151.775 128.563 151.997C128.186 152.211 127.775 152.318 127.331 152.318C126.998 152.318 126.717 152.278 126.488 152.196C126.266 152.122 126.084 152.026 125.944 151.908C125.811 151.782 125.703 151.656 125.622 151.531H125.422V154.383H124.024ZM126.909 151.098C127.346 151.098 127.705 150.961 127.986 150.687C128.274 150.406 128.419 149.999 128.419 149.466V149.355C128.419 148.823 128.274 148.419 127.986 148.146C127.697 147.865 127.338 147.724 126.909 147.724C126.48 147.724 126.121 147.865 125.833 148.146C125.544 148.419 125.4 148.823 125.4 149.355V149.466C125.4 149.999 125.544 150.406 125.833 150.687C126.121 150.961 126.48 151.098 126.909 151.098ZM131.101 152.163V146.659H132.477V147.28H132.677C132.758 147.058 132.891 146.895 133.076 146.792C133.269 146.688 133.491 146.636 133.742 146.636H134.408V147.879H133.72C133.365 147.879 133.073 147.976 132.843 148.168C132.614 148.353 132.499 148.641 132.499 149.034V152.163H131.101ZM137.925 152.318C137.378 152.318 136.886 152.208 136.449 151.986C136.013 151.764 135.668 151.442 135.417 151.02C135.165 150.598 135.04 150.092 135.04 149.5V149.322C135.04 148.73 135.165 148.223 135.417 147.802C135.668 147.38 136.013 147.058 136.449 146.836C136.886 146.614 137.378 146.503 137.925 146.503C138.473 146.503 138.965 146.614 139.401 146.836C139.838 147.058 140.182 147.38 140.433 147.802C140.685 148.223 140.81 148.73 140.81 149.322V149.5C140.81 150.092 140.685 150.598 140.433 151.02C140.182 151.442 139.838 151.764 139.401 151.986C138.965 152.208 138.473 152.318 137.925 152.318ZM137.925 151.076C138.354 151.076 138.709 150.939 138.99 150.665C139.272 150.384 139.412 149.984 139.412 149.466V149.355C139.412 148.837 139.272 148.442 138.99 148.168C138.717 147.887 138.362 147.746 137.925 147.746C137.496 147.746 137.141 147.887 136.86 148.168C136.579 148.442 136.438 148.837 136.438 149.355V149.466C136.438 149.984 136.579 150.384 136.86 150.665C137.141 150.939 137.496 151.076 137.925 151.076ZM144.321 152.318C143.884 152.318 143.474 152.211 143.089 151.997C142.712 151.775 142.408 151.453 142.179 151.031C141.95 150.609 141.835 150.099 141.835 149.5V149.322C141.835 148.723 141.95 148.212 142.179 147.791C142.408 147.369 142.712 147.051 143.089 146.836C143.466 146.614 143.877 146.503 144.321 146.503C144.654 146.503 144.931 146.544 145.153 146.625C145.382 146.699 145.567 146.795 145.708 146.914C145.849 147.032 145.956 147.158 146.03 147.291H146.23V144.395H147.628V152.163H146.252V151.497H146.052C145.926 151.704 145.73 151.893 145.464 152.063C145.205 152.233 144.824 152.318 144.321 152.318ZM144.743 151.098C145.172 151.098 145.53 150.961 145.819 150.687C146.108 150.406 146.252 149.999 146.252 149.466V149.355C146.252 148.823 146.108 148.419 145.819 148.146C145.538 147.865 145.179 147.724 144.743 147.724C144.313 147.724 143.955 147.865 143.666 148.146C143.377 148.419 143.233 148.823 143.233 149.355V149.466C143.233 149.999 143.377 150.406 143.666 150.687C143.955 150.961 144.313 151.098 144.743 151.098ZM150.055 152.318C149.759 152.318 149.508 152.222 149.3 152.03C149.101 151.83 149.001 151.575 149.001 151.264C149.001 150.953 149.101 150.702 149.3 150.51C149.508 150.31 149.759 150.21 150.055 150.21C150.358 150.21 150.61 150.31 150.81 150.51C151.009 150.702 151.109 150.953 151.109 151.264C151.109 151.575 151.009 151.83 150.81 152.03C150.61 152.222 150.358 152.318 150.055 152.318ZM154.581 152.252C154.152 152.252 153.775 152.156 153.449 151.963C153.131 151.764 152.883 151.49 152.706 151.142C152.528 150.794 152.439 150.395 152.439 149.944V146.659H153.838V149.833C153.838 150.247 153.938 150.558 154.137 150.765C154.345 150.972 154.637 151.076 155.014 151.076C155.443 151.076 155.776 150.935 156.013 150.654C156.25 150.365 156.368 149.966 156.368 149.455V146.659H157.766V152.163H156.39V151.442H156.19C156.102 151.627 155.935 151.808 155.691 151.986C155.447 152.163 155.077 152.252 154.581 152.252ZM159.322 154.383V146.659H160.699V147.324H160.898C161.024 147.11 161.22 146.921 161.487 146.758C161.753 146.588 162.134 146.503 162.63 146.503C163.074 146.503 163.484 146.614 163.861 146.836C164.239 147.051 164.542 147.369 164.771 147.791C165.001 148.212 165.116 148.723 165.116 149.322V149.5C165.116 150.099 165.001 150.609 164.771 151.031C164.542 151.453 164.239 151.775 163.861 151.997C163.484 152.211 163.074 152.318 162.63 152.318C162.297 152.318 162.016 152.278 161.786 152.196C161.564 152.122 161.383 152.026 161.242 151.908C161.109 151.782 161.002 151.656 160.921 151.531H160.721V154.383H159.322ZM162.208 151.098C162.644 151.098 163.003 150.961 163.284 150.687C163.573 150.406 163.717 149.999 163.717 149.466V149.355C163.717 148.823 163.573 148.419 163.284 148.146C162.996 147.865 162.637 147.724 162.208 147.724C161.779 147.724 161.42 147.865 161.131 148.146C160.843 148.419 160.699 148.823 160.699 149.355V149.466C160.699 149.999 160.843 150.406 161.131 150.687C161.42 150.961 161.779 151.098 162.208 151.098ZM167.211 152.318C166.915 152.318 166.664 152.222 166.457 152.03C166.257 151.83 166.157 151.575 166.157 151.264C166.157 150.953 166.257 150.702 166.457 150.51C166.664 150.31 166.915 150.21 167.211 150.21C167.515 150.21 167.766 150.31 167.966 150.51C168.166 150.702 168.266 150.953 168.266 151.264C168.266 151.575 168.166 151.83 167.966 152.03C167.766 152.222 167.515 152.318 167.211 152.318ZM169.64 152.163V146.659H171.016V147.28H171.216C171.297 147.058 171.43 146.895 171.615 146.792C171.808 146.688 172.03 146.636 172.281 146.636H172.947V147.879H172.259C171.904 147.879 171.612 147.976 171.382 148.168C171.153 148.353 171.038 148.641 171.038 149.034V152.163H169.64ZM175.619 152.318C175.227 152.318 174.876 152.252 174.565 152.119C174.254 151.978 174.006 151.778 173.821 151.519C173.644 151.253 173.555 150.931 173.555 150.554C173.555 150.177 173.644 149.862 173.821 149.611C174.006 149.352 174.258 149.159 174.576 149.034C174.901 148.9 175.271 148.834 175.686 148.834H177.195V148.523C177.195 148.264 177.114 148.053 176.951 147.89C176.788 147.72 176.529 147.635 176.174 147.635C175.826 147.635 175.567 147.717 175.397 147.879C175.227 148.035 175.116 148.238 175.064 148.49L173.777 148.057C173.866 147.776 174.006 147.521 174.199 147.291C174.398 147.054 174.661 146.866 174.987 146.725C175.32 146.577 175.723 146.503 176.196 146.503C176.921 146.503 177.495 146.684 177.916 147.047C178.338 147.41 178.549 147.935 178.549 148.623V150.676C178.549 150.898 178.653 151.009 178.86 151.009H179.304V152.163H178.371C178.098 152.163 177.872 152.097 177.694 151.963C177.517 151.83 177.428 151.653 177.428 151.431V151.42H177.217C177.188 151.508 177.121 151.627 177.017 151.775C176.914 151.915 176.751 152.041 176.529 152.152C176.307 152.263 176.004 152.318 175.619 152.318ZM175.863 151.187C176.255 151.187 176.574 151.079 176.818 150.865C177.069 150.643 177.195 150.35 177.195 149.988V149.877H175.786C175.527 149.877 175.323 149.932 175.175 150.043C175.027 150.154 174.953 150.31 174.953 150.51C174.953 150.709 175.031 150.872 175.186 150.998C175.342 151.124 175.567 151.187 175.863 151.187ZM180.326 152.163V146.659H181.724V152.163H180.326ZM181.025 146.015C180.774 146.015 180.559 145.934 180.382 145.771C180.211 145.608 180.126 145.393 180.126 145.127C180.126 144.861 180.211 144.646 180.382 144.483C180.559 144.321 180.774 144.239 181.025 144.239C181.284 144.239 181.499 144.321 181.669 144.483C181.839 144.646 181.924 144.861 181.924 145.127C181.924 145.393 181.839 145.608 181.669 145.771C181.499 145.934 181.284 146.015 181.025 146.015ZM183.274 152.163V146.659H184.65V147.38H184.85C184.939 147.188 185.105 147.006 185.349 146.836C185.593 146.659 185.963 146.57 186.459 146.57C186.888 146.57 187.262 146.67 187.58 146.869C187.905 147.062 188.157 147.332 188.335 147.68C188.512 148.02 188.601 148.419 188.601 148.878V152.163H187.203V148.989C187.203 148.575 187.099 148.264 186.892 148.057C186.692 147.85 186.404 147.746 186.026 147.746C185.597 147.746 185.264 147.89 185.027 148.179C184.791 148.46 184.672 148.856 184.672 149.366V152.163H183.274ZM190.989 152.318C190.693 152.318 190.442 152.222 190.235 152.03C190.035 151.83 189.935 151.575 189.935 151.264C189.935 150.953 190.035 150.702 190.235 150.51C190.442 150.31 190.693 150.21 190.989 150.21C191.293 150.21 191.544 150.31 191.744 150.51C191.944 150.702 192.044 150.953 192.044 151.264C192.044 151.575 191.944 151.83 191.744 152.03C191.544 152.222 191.293 152.318 190.989 152.318ZM195.127 152.318C194.735 152.318 194.384 152.252 194.073 152.119C193.762 151.978 193.514 151.778 193.329 151.519C193.152 151.253 193.063 150.931 193.063 150.554C193.063 150.177 193.152 149.862 193.329 149.611C193.514 149.352 193.766 149.159 194.084 149.034C194.409 148.9 194.779 148.834 195.194 148.834H196.703V148.523C196.703 148.264 196.622 148.053 196.459 147.89C196.296 147.72 196.037 147.635 195.682 147.635C195.334 147.635 195.075 147.717 194.905 147.879C194.735 148.035 194.624 148.238 194.572 148.49L193.285 148.057C193.374 147.776 193.514 147.521 193.707 147.291C193.906 147.054 194.169 146.866 194.495 146.725C194.827 146.577 195.231 146.503 195.704 146.503C196.429 146.503 197.003 146.684 197.424 147.047C197.846 147.41 198.057 147.935 198.057 148.623V150.676C198.057 150.898 198.161 151.009 198.368 151.009H198.812V152.163H197.879C197.606 152.163 197.38 152.097 197.202 151.963C197.025 151.83 196.936 151.653 196.936 151.431V151.42H196.725C196.696 151.508 196.629 151.627 196.525 151.775C196.422 151.915 196.259 152.041 196.037 152.152C195.815 152.263 195.512 152.318 195.127 152.318ZM195.371 151.187C195.763 151.187 196.082 151.079 196.326 150.865C196.577 150.643 196.703 150.35 196.703 149.988V149.877H195.294C195.035 149.877 194.831 149.932 194.683 150.043C194.535 150.154 194.461 150.31 194.461 150.51C194.461 150.709 194.539 150.872 194.694 150.998C194.85 151.124 195.075 151.187 195.371 151.187ZM199.834 154.383V146.659H201.21V147.324H201.41C201.536 147.11 201.732 146.921 201.998 146.758C202.264 146.588 202.645 146.503 203.141 146.503C203.585 146.503 203.996 146.614 204.373 146.836C204.75 147.051 205.054 147.369 205.283 147.791C205.512 148.212 205.627 148.723 205.627 149.322V149.5C205.627 150.099 205.512 150.609 205.283 151.031C205.054 151.453 204.75 151.775 204.373 151.997C203.996 152.211 203.585 152.318 203.141 152.318C202.808 152.318 202.527 152.278 202.298 152.196C202.076 152.122 201.895 152.026 201.754 151.908C201.621 151.782 201.513 151.656 201.432 151.531H201.232V154.383H199.834ZM202.719 151.098C203.156 151.098 203.515 150.961 203.796 150.687C204.084 150.406 204.229 149.999 204.229 149.466V149.355C204.229 148.823 204.084 148.419 203.796 148.146C203.507 147.865 203.149 147.724 202.719 147.724C202.29 147.724 201.932 147.865 201.643 148.146C201.354 148.419 201.21 148.823 201.21 149.355V149.466C201.21 149.999 201.354 150.406 201.643 150.687C201.932 150.961 202.29 151.098 202.719 151.098ZM206.911 154.383V146.659H208.287V147.324H208.487C208.613 147.11 208.809 146.921 209.075 146.758C209.342 146.588 209.723 146.503 210.218 146.503C210.662 146.503 211.073 146.614 211.45 146.836C211.827 147.051 212.131 147.369 212.36 147.791C212.589 148.212 212.704 148.723 212.704 149.322V149.5C212.704 150.099 212.589 150.609 212.36 151.031C212.131 151.453 211.827 151.775 211.45 151.997C211.073 152.211 210.662 152.318 210.218 152.318C209.885 152.318 209.604 152.278 209.375 152.196C209.153 152.122 208.972 152.026 208.831 151.908C208.698 151.782 208.591 151.656 208.509 151.531H208.309V154.383H206.911ZM209.797 151.098C210.233 151.098 210.592 150.961 210.873 150.687C211.162 150.406 211.306 149.999 211.306 149.466V149.355C211.306 148.823 211.162 148.419 210.873 148.146C210.584 147.865 210.226 147.724 209.797 147.724C209.367 147.724 209.009 147.865 208.72 148.146C208.431 148.419 208.287 148.823 208.287 149.355V149.466C208.287 149.999 208.431 150.406 208.72 150.687C209.009 150.961 209.367 151.098 209.797 151.098Z" fill="black"/>
<circle cx="55.0269" cy="138.261" r="12.9475" fill="#FCD16E"/>
<circle cx="55.0269" cy="138.261" r="7.39858" fill="#E4A923"/>
<circle cx="311.665" cy="120.689" r="0.924823" fill="#D9D9D9"/>
<circle cx="311.665" cy="124.389" r="0.924823" fill="#D9D9D9"/>
<circle cx="311.665" cy="128.088" r="0.924823" fill="#D9D9D9"/>
<rect x="33.5248" y="111.672" width="287.157" height="52.2525" rx="3.76879" stroke="black" stroke-width="0.462411"/>
<path d="M81.1919 197.814V190.046H86.075V191.377H82.6569V193.253H85.8086V194.585H82.6569V197.814H81.1919ZM88.787 197.97C88.3948 197.97 88.0434 197.903 87.7327 197.77C87.4219 197.629 87.1741 197.429 86.9891 197.171C86.8115 196.904 86.7227 196.582 86.7227 196.205C86.7227 195.828 86.8115 195.513 86.9891 195.262C87.1741 195.003 87.4256 194.81 87.7438 194.685C88.0693 194.551 88.4392 194.485 88.8535 194.485H90.3629V194.174C90.3629 193.915 90.2815 193.704 90.1187 193.541C89.9559 193.371 89.697 193.286 89.3418 193.286C88.9941 193.286 88.7352 193.368 88.565 193.53C88.3948 193.686 88.2838 193.889 88.2321 194.141L86.9447 193.708C87.0335 193.427 87.1741 193.172 87.3664 192.942C87.5662 192.705 87.8288 192.517 88.1544 192.376C88.4873 192.228 88.8905 192.154 89.364 192.154C90.0891 192.154 90.6625 192.336 91.0842 192.698C91.5059 193.061 91.7168 193.586 91.7168 194.274V196.327C91.7168 196.549 91.8204 196.66 92.0275 196.66H92.4714V197.814H91.5392C91.2655 197.814 91.0398 197.748 90.8623 197.614C90.6847 197.481 90.5959 197.304 90.5959 197.082V197.071H90.385C90.3555 197.159 90.2889 197.278 90.1853 197.426C90.0817 197.566 89.9189 197.692 89.697 197.803C89.475 197.914 89.1717 197.97 88.787 197.97ZM89.0311 196.838C89.4232 196.838 89.7414 196.73 89.9855 196.516C90.2371 196.294 90.3629 196.002 90.3629 195.639V195.528H88.9534C88.6945 195.528 88.491 195.584 88.343 195.694C88.1951 195.805 88.1211 195.961 88.1211 196.161C88.1211 196.36 88.1988 196.523 88.3541 196.649C88.5095 196.775 88.7352 196.838 89.0311 196.838ZM93.4938 197.814V192.31H94.8922V197.814H93.4938ZM94.193 191.666C93.9415 191.666 93.7269 191.585 93.5493 191.422C93.3792 191.259 93.2941 191.044 93.2941 190.778C93.2941 190.512 93.3792 190.297 93.5493 190.134C93.7269 189.972 93.9415 189.89 94.193 189.89C94.452 189.89 94.6665 189.972 94.8367 190.134C95.0068 190.297 95.0919 190.512 95.0919 190.778C95.0919 191.044 95.0068 191.259 94.8367 191.422C94.6665 191.585 94.452 191.666 94.193 191.666ZM96.4417 197.814V190.046H97.84V197.814H96.4417ZM101.898 197.97C101.35 197.97 100.866 197.855 100.444 197.626C100.03 197.389 99.704 197.06 99.4673 196.638C99.2379 196.209 99.1232 195.706 99.1232 195.128V194.995C99.1232 194.418 99.2379 193.919 99.4673 193.497C99.6966 193.068 100.018 192.739 100.433 192.509C100.847 192.273 101.328 192.154 101.876 192.154C102.416 192.154 102.885 192.276 103.285 192.52C103.684 192.757 103.995 193.09 104.217 193.519C104.439 193.941 104.55 194.433 104.55 194.995V195.473H100.544C100.559 195.85 100.699 196.157 100.965 196.394C101.232 196.63 101.557 196.749 101.942 196.749C102.334 196.749 102.623 196.664 102.808 196.494C102.993 196.323 103.133 196.135 103.229 195.928L104.373 196.527C104.269 196.719 104.117 196.93 103.918 197.159C103.725 197.381 103.466 197.574 103.141 197.736C102.815 197.892 102.401 197.97 101.898 197.97ZM100.555 194.429H103.13C103.1 194.111 102.97 193.856 102.741 193.664C102.519 193.471 102.227 193.375 101.864 193.375C101.487 193.375 101.187 193.471 100.965 193.664C100.744 193.856 100.607 194.111 100.555 194.429ZM108.014 197.97C107.578 197.97 107.167 197.862 106.782 197.648C106.405 197.426 106.102 197.104 105.872 196.682C105.643 196.26 105.528 195.75 105.528 195.151V194.973C105.528 194.374 105.643 193.863 105.872 193.442C106.102 193.02 106.405 192.702 106.782 192.487C107.16 192.265 107.57 192.154 108.014 192.154C108.347 192.154 108.625 192.195 108.847 192.276C109.076 192.35 109.261 192.447 109.402 192.565C109.542 192.683 109.649 192.809 109.723 192.942H109.923V190.046H111.321V197.814H109.945V197.148H109.746C109.62 197.355 109.424 197.544 109.157 197.714C108.898 197.884 108.517 197.97 108.014 197.97ZM108.436 196.749C108.865 196.749 109.224 196.612 109.512 196.338C109.801 196.057 109.945 195.65 109.945 195.117V195.006C109.945 194.474 109.801 194.07 109.512 193.797C109.231 193.516 108.873 193.375 108.436 193.375C108.007 193.375 107.648 193.516 107.36 193.797C107.071 194.07 106.927 194.474 106.927 195.006V195.117C106.927 195.65 107.071 196.057 107.36 196.338C107.648 196.612 108.007 196.749 108.436 196.749Z" fill="black"/>
<path d="M81.2363 219.213V213.708H82.6125V214.308H82.8122C82.9084 214.123 83.0675 213.963 83.2894 213.83C83.5114 213.69 83.8036 213.619 84.1662 213.619C84.5583 213.619 84.8727 213.697 85.1095 213.852C85.3462 214 85.5275 214.197 85.6533 214.441H85.853C85.9788 214.204 86.1564 214.008 86.3857 213.852C86.6151 213.697 86.9406 213.619 87.3624 213.619C87.7027 213.619 88.0097 213.693 88.2835 213.841C88.5646 213.982 88.7866 214.2 88.9493 214.496C89.1195 214.785 89.2046 215.151 89.2046 215.595V219.213H87.8063V215.695C87.8063 215.391 87.7286 215.166 87.5732 215.018C87.4178 214.862 87.1996 214.785 86.9184 214.785C86.6003 214.785 86.3524 214.888 86.1749 215.095C86.0047 215.295 85.9196 215.584 85.9196 215.961V219.213H84.5213V215.695C84.5213 215.391 84.4436 215.166 84.2882 215.018C84.1329 214.862 83.9146 214.785 83.6335 214.785C83.3153 214.785 83.0675 214.888 82.8899 215.095C82.7197 215.295 82.6347 215.584 82.6347 215.961V219.213H81.2363ZM92.4176 219.368C92.0255 219.368 91.674 219.302 91.3633 219.168C91.0526 219.028 90.8047 218.828 90.6197 218.569C90.4422 218.303 90.3534 217.981 90.3534 217.604C90.3534 217.226 90.4422 216.912 90.6197 216.66C90.8047 216.401 91.0563 216.209 91.3744 216.083C91.6999 215.95 92.0699 215.883 92.4842 215.883H93.9935V215.573C93.9935 215.314 93.9121 215.103 93.7494 214.94C93.5866 214.77 93.3276 214.685 92.9725 214.685C92.6248 214.685 92.3658 214.766 92.1956 214.929C92.0255 215.084 91.9145 215.288 91.8627 215.539L90.5754 215.107C90.6641 214.825 90.8047 214.57 90.9971 214.341C91.1968 214.104 91.4595 213.915 91.785 213.775C92.118 213.627 92.5212 213.553 92.9947 213.553C93.7198 213.553 94.2931 213.734 94.7149 214.097C95.1366 214.459 95.3474 214.984 95.3474 215.673V217.726C95.3474 217.948 95.451 218.059 95.6582 218.059H96.1021V219.213H95.1699C94.8961 219.213 94.6705 219.146 94.4929 219.013C94.3153 218.88 94.2266 218.702 94.2266 218.48V218.469H94.0157C93.9861 218.558 93.9195 218.676 93.8159 218.824C93.7124 218.965 93.5496 219.091 93.3276 219.202C93.1057 219.313 92.8023 219.368 92.4176 219.368ZM92.6618 218.236C93.0539 218.236 93.372 218.129 93.6162 217.914C93.8677 217.692 93.9935 217.4 93.9935 217.038V216.927H92.5841C92.3251 216.927 92.1217 216.982 91.9737 217.093C91.8257 217.204 91.7517 217.359 91.7517 217.559C91.7517 217.759 91.8294 217.922 91.9848 218.047C92.1402 218.173 92.3658 218.236 92.6618 218.236ZM96.7498 216.483V216.305C96.7498 215.728 96.8644 215.236 97.0938 214.829C97.3232 214.415 97.6265 214.1 98.0038 213.886C98.3885 213.664 98.8066 213.553 99.2579 213.553C99.761 213.553 100.142 213.642 100.401 213.819C100.66 213.997 100.849 214.182 100.967 214.374H101.167V213.708H102.543V220.189C102.543 220.567 102.432 220.866 102.21 221.088C101.988 221.318 101.692 221.432 101.322 221.432H97.6376V220.212H100.834C101.041 220.212 101.145 220.101 101.145 219.879V218.447H100.945C100.871 218.565 100.767 218.687 100.634 218.813C100.501 218.932 100.323 219.032 100.101 219.113C99.8794 219.194 99.5982 219.235 99.2579 219.235C98.8066 219.235 98.3885 219.128 98.0038 218.913C97.6265 218.691 97.3232 218.377 97.0938 217.97C96.8644 217.555 96.7498 217.06 96.7498 216.483ZM99.6574 218.014C100.087 218.014 100.445 217.877 100.734 217.604C101.022 217.33 101.167 216.945 101.167 216.449V216.338C101.167 215.835 101.022 215.451 100.734 215.184C100.453 214.91 100.094 214.774 99.6574 214.774C99.2283 214.774 98.8695 214.91 98.5809 215.184C98.2924 215.451 98.1481 215.835 98.1481 216.338V216.449C98.1481 216.945 98.2924 217.33 98.5809 217.604C98.8695 217.877 99.2283 218.014 99.6574 218.014ZM104.093 219.213V211.444H105.492V219.213H104.093ZM109.549 219.368C109.002 219.368 108.517 219.253 108.095 219.024C107.681 218.787 107.355 218.458 107.119 218.036C106.889 217.607 106.775 217.104 106.775 216.527V216.394C106.775 215.817 106.889 215.317 107.119 214.896C107.348 214.467 107.67 214.137 108.084 213.908C108.499 213.671 108.979 213.553 109.527 213.553C110.067 213.553 110.537 213.675 110.936 213.919C111.336 214.156 111.647 214.489 111.869 214.918C112.091 215.34 112.202 215.832 112.202 216.394V216.871H108.195C108.21 217.248 108.351 217.555 108.617 217.792C108.883 218.029 109.209 218.147 109.594 218.147C109.986 218.147 110.274 218.062 110.459 217.892C110.644 217.722 110.785 217.533 110.881 217.326L112.024 217.925C111.92 218.118 111.769 218.329 111.569 218.558C111.377 218.78 111.118 218.972 110.792 219.135C110.467 219.29 110.052 219.368 109.549 219.368ZM108.206 215.828H110.781C110.751 215.51 110.622 215.255 110.393 215.062C110.171 214.87 109.878 214.774 109.516 214.774C109.139 214.774 108.839 214.87 108.617 215.062C108.395 215.255 108.258 215.51 108.206 215.828ZM114.438 219.213L112.684 213.708H114.171L115.448 218.192H115.647L116.924 213.708H118.411L116.657 219.213H114.438ZM119.211 217.015V215.75H122.496V217.015H119.211ZM124.024 221.432V213.708H125.4V214.374H125.6C125.726 214.16 125.922 213.971 126.188 213.808C126.454 213.638 126.835 213.553 127.331 213.553C127.775 213.553 128.186 213.664 128.563 213.886C128.94 214.1 129.244 214.418 129.473 214.84C129.702 215.262 129.817 215.772 129.817 216.372V216.549C129.817 217.149 129.702 217.659 129.473 218.081C129.244 218.503 128.94 218.824 128.563 219.046C128.186 219.261 127.775 219.368 127.331 219.368C126.998 219.368 126.717 219.327 126.488 219.246C126.266 219.172 126.084 219.076 125.944 218.958C125.811 218.832 125.703 218.706 125.622 218.58H125.422V221.432H124.024ZM126.909 218.147C127.346 218.147 127.705 218.01 127.986 217.737C128.274 217.456 128.419 217.049 128.419 216.516V216.405C128.419 215.872 128.274 215.469 127.986 215.195C127.697 214.914 127.338 214.774 126.909 214.774C126.48 214.774 126.121 214.914 125.833 215.195C125.544 215.469 125.4 215.872 125.4 216.405V216.516C125.4 217.049 125.544 217.456 125.833 217.737C126.121 218.01 126.48 218.147 126.909 218.147ZM131.101 219.213V213.708H132.477V214.33H132.677C132.758 214.108 132.891 213.945 133.076 213.841C133.269 213.738 133.491 213.686 133.742 213.686H134.408V214.929H133.72C133.365 214.929 133.073 215.025 132.843 215.218C132.614 215.402 132.499 215.691 132.499 216.083V219.213H131.101ZM137.925 219.368C137.378 219.368 136.886 219.257 136.449 219.035C136.013 218.813 135.668 218.491 135.417 218.07C135.165 217.648 135.04 217.141 135.04 216.549V216.372C135.04 215.78 135.165 215.273 135.417 214.851C135.668 214.43 136.013 214.108 136.449 213.886C136.886 213.664 137.378 213.553 137.925 213.553C138.473 213.553 138.965 213.664 139.401 213.886C139.838 214.108 140.182 214.43 140.433 214.851C140.685 215.273 140.81 215.78 140.81 216.372V216.549C140.81 217.141 140.685 217.648 140.433 218.07C140.182 218.491 139.838 218.813 139.401 219.035C138.965 219.257 138.473 219.368 137.925 219.368ZM137.925 218.125C138.354 218.125 138.709 217.988 138.99 217.715C139.272 217.433 139.412 217.034 139.412 216.516V216.405C139.412 215.887 139.272 215.491 138.99 215.218C138.717 214.936 138.362 214.796 137.925 214.796C137.496 214.796 137.141 214.936 136.86 215.218C136.579 215.491 136.438 215.887 136.438 216.405V216.516C136.438 217.034 136.579 217.433 136.86 217.715C137.141 217.988 137.496 218.125 137.925 218.125ZM144.321 219.368C143.884 219.368 143.474 219.261 143.089 219.046C142.712 218.824 142.408 218.503 142.179 218.081C141.95 217.659 141.835 217.149 141.835 216.549V216.372C141.835 215.772 141.95 215.262 142.179 214.84C142.408 214.418 142.712 214.1 143.089 213.886C143.466 213.664 143.877 213.553 144.321 213.553C144.654 213.553 144.931 213.594 145.153 213.675C145.382 213.749 145.567 213.845 145.708 213.963C145.849 214.082 145.956 214.208 146.03 214.341H146.23V211.444H147.628V219.213H146.252V218.547H146.052C145.926 218.754 145.73 218.943 145.464 219.113C145.205 219.283 144.824 219.368 144.321 219.368ZM144.743 218.147C145.172 218.147 145.53 218.01 145.819 217.737C146.108 217.456 146.252 217.049 146.252 216.516V216.405C146.252 215.872 146.108 215.469 145.819 215.195C145.538 214.914 145.179 214.774 144.743 214.774C144.313 214.774 143.955 214.914 143.666 215.195C143.377 215.469 143.233 215.872 143.233 216.405V216.516C143.233 217.049 143.377 217.456 143.666 217.737C143.955 218.01 144.313 218.147 144.743 218.147ZM150.055 219.368C149.759 219.368 149.508 219.272 149.3 219.08C149.101 218.88 149.001 218.625 149.001 218.314C149.001 218.003 149.101 217.752 149.3 217.559C149.508 217.359 149.759 217.26 150.055 217.26C150.358 217.26 150.61 217.359 150.81 217.559C151.009 217.752 151.109 218.003 151.109 218.314C151.109 218.625 151.009 218.88 150.81 219.08C150.61 219.272 150.358 219.368 150.055 219.368ZM154.581 219.302C154.152 219.302 153.775 219.205 153.449 219.013C153.131 218.813 152.883 218.539 152.706 218.192C152.528 217.844 152.439 217.445 152.439 216.993V213.708H153.838V216.882C153.838 217.297 153.938 217.607 154.137 217.814C154.345 218.022 154.637 218.125 155.014 218.125C155.443 218.125 155.776 217.985 156.013 217.703C156.25 217.415 156.368 217.015 156.368 216.505V213.708H157.766V219.213H156.39V218.491H156.19C156.102 218.676 155.935 218.858 155.691 219.035C155.447 219.213 155.077 219.302 154.581 219.302ZM159.322 221.432V213.708H160.699V214.374H160.898C161.024 214.16 161.22 213.971 161.487 213.808C161.753 213.638 162.134 213.553 162.63 213.553C163.074 213.553 163.484 213.664 163.861 213.886C164.239 214.1 164.542 214.418 164.771 214.84C165.001 215.262 165.116 215.772 165.116 216.372V216.549C165.116 217.149 165.001 217.659 164.771 218.081C164.542 218.503 164.239 218.824 163.861 219.046C163.484 219.261 163.074 219.368 162.63 219.368C162.297 219.368 162.016 219.327 161.786 219.246C161.564 219.172 161.383 219.076 161.242 218.958C161.109 218.832 161.002 218.706 160.921 218.58H160.721V221.432H159.322ZM162.208 218.147C162.644 218.147 163.003 218.01 163.284 217.737C163.573 217.456 163.717 217.049 163.717 216.516V216.405C163.717 215.872 163.573 215.469 163.284 215.195C162.996 214.914 162.637 214.774 162.208 214.774C161.779 214.774 161.42 214.914 161.131 215.195C160.843 215.469 160.699 215.872 160.699 216.405V216.516C160.699 217.049 160.843 217.456 161.131 217.737C161.42 218.01 161.779 218.147 162.208 218.147ZM167.211 219.368C166.915 219.368 166.664 219.272 166.457 219.08C166.257 218.88 166.157 218.625 166.157 218.314C166.157 218.003 166.257 217.752 166.457 217.559C166.664 217.359 166.915 217.26 167.211 217.26C167.515 217.26 167.766 217.359 167.966 217.559C168.166 217.752 168.266 218.003 168.266 218.314C168.266 218.625 168.166 218.88 167.966 219.08C167.766 219.272 167.515 219.368 167.211 219.368ZM169.64 219.213V213.708H171.016V214.33H171.216C171.297 214.108 171.43 213.945 171.615 213.841C171.808 213.738 172.03 213.686 172.281 213.686H172.947V214.929H172.259C171.904 214.929 171.612 215.025 171.382 215.218C171.153 215.402 171.038 215.691 171.038 216.083V219.213H169.64ZM175.619 219.368C175.227 219.368 174.876 219.302 174.565 219.168C174.254 219.028 174.006 218.828 173.821 218.569C173.644 218.303 173.555 217.981 173.555 217.604C173.555 217.226 173.644 216.912 173.821 216.66C174.006 216.401 174.258 216.209 174.576 216.083C174.901 215.95 175.271 215.883 175.686 215.883H177.195V215.573C177.195 215.314 177.114 215.103 176.951 214.94C176.788 214.77 176.529 214.685 176.174 214.685C175.826 214.685 175.567 214.766 175.397 214.929C175.227 215.084 175.116 215.288 175.064 215.539L173.777 215.107C173.866 214.825 174.006 214.57 174.199 214.341C174.398 214.104 174.661 213.915 174.987 213.775C175.32 213.627 175.723 213.553 176.196 213.553C176.921 213.553 177.495 213.734 177.916 214.097C178.338 214.459 178.549 214.984 178.549 215.673V217.726C178.549 217.948 178.653 218.059 178.86 218.059H179.304V219.213H178.371C178.098 219.213 177.872 219.146 177.694 219.013C177.517 218.88 177.428 218.702 177.428 218.48V218.469H177.217C177.188 218.558 177.121 218.676 177.017 218.824C176.914 218.965 176.751 219.091 176.529 219.202C176.307 219.313 176.004 219.368 175.619 219.368ZM175.863 218.236C176.255 218.236 176.574 218.129 176.818 217.914C177.069 217.692 177.195 217.4 177.195 217.038V216.927H175.786C175.527 216.927 175.323 216.982 175.175 217.093C175.027 217.204 174.953 217.359 174.953 217.559C174.953 217.759 175.031 217.922 175.186 218.047C175.342 218.173 175.567 218.236 175.863 218.236ZM180.326 219.213V213.708H181.724V219.213H180.326ZM181.025 213.065C180.774 213.065 180.559 212.983 180.382 212.82C180.211 212.658 180.126 212.443 180.126 212.177C180.126 211.91 180.211 211.696 180.382 211.533C180.559 211.37 180.774 211.289 181.025 211.289C181.284 211.289 181.499 211.37 181.669 211.533C181.839 211.696 181.924 211.91 181.924 212.177C181.924 212.443 181.839 212.658 181.669 212.82C181.499 212.983 181.284 213.065 181.025 213.065ZM183.274 219.213V213.708H184.65V214.43H184.85C184.939 214.237 185.105 214.056 185.349 213.886C185.593 213.708 185.963 213.619 186.459 213.619C186.888 213.619 187.262 213.719 187.58 213.919C187.905 214.111 188.157 214.381 188.335 214.729C188.512 215.07 188.601 215.469 188.601 215.928V219.213H187.203V216.039C187.203 215.624 187.099 215.314 186.892 215.107C186.692 214.899 186.404 214.796 186.026 214.796C185.597 214.796 185.264 214.94 185.027 215.229C184.791 215.51 184.672 215.906 184.672 216.416V219.213H183.274ZM190.989 219.368C190.693 219.368 190.442 219.272 190.235 219.08C190.035 218.88 189.935 218.625 189.935 218.314C189.935 218.003 190.035 217.752 190.235 217.559C190.442 217.359 190.693 217.26 190.989 217.26C191.293 217.26 191.544 217.359 191.744 217.559C191.944 217.752 192.044 218.003 192.044 218.314C192.044 218.625 191.944 218.88 191.744 219.08C191.544 219.272 191.293 219.368 190.989 219.368ZM195.127 219.368C194.735 219.368 194.384 219.302 194.073 219.168C193.762 219.028 193.514 218.828 193.329 218.569C193.152 218.303 193.063 217.981 193.063 217.604C193.063 217.226 193.152 216.912 193.329 216.66C193.514 216.401 193.766 216.209 194.084 216.083C194.409 215.95 194.779 215.883 195.194 215.883H196.703V215.573C196.703 215.314 196.622 215.103 196.459 214.94C196.296 214.77 196.037 214.685 195.682 214.685C195.334 214.685 195.075 214.766 194.905 214.929C194.735 215.084 194.624 215.288 194.572 215.539L193.285 215.107C193.374 214.825 193.514 214.57 193.707 214.341C193.906 214.104 194.169 213.915 194.495 213.775C194.827 213.627 195.231 213.553 195.704 213.553C196.429 213.553 197.003 213.734 197.424 214.097C197.846 214.459 198.057 214.984 198.057 215.673V217.726C198.057 217.948 198.161 218.059 198.368 218.059H198.812V219.213H197.879C197.606 219.213 197.38 219.146 197.202 219.013C197.025 218.88 196.936 218.702 196.936 218.48V218.469H196.725C196.696 218.558 196.629 218.676 196.525 218.824C196.422 218.965 196.259 219.091 196.037 219.202C195.815 219.313 195.512 219.368 195.127 219.368ZM195.371 218.236C195.763 218.236 196.082 218.129 196.326 217.914C196.577 217.692 196.703 217.4 196.703 217.038V216.927H195.294C195.035 216.927 194.831 216.982 194.683 217.093C194.535 217.204 194.461 217.359 194.461 217.559C194.461 217.759 194.539 217.922 194.694 218.047C194.85 218.173 195.075 218.236 195.371 218.236ZM199.834 221.432V213.708H201.21V214.374H201.41C201.536 214.16 201.732 213.971 201.998 213.808C202.264 213.638 202.645 213.553 203.141 213.553C203.585 213.553 203.996 213.664 204.373 213.886C204.75 214.1 205.054 214.418 205.283 214.84C205.512 215.262 205.627 215.772 205.627 216.372V216.549C205.627 217.149 205.512 217.659 205.283 218.081C205.054 218.503 204.75 218.824 204.373 219.046C203.996 219.261 203.585 219.368 203.141 219.368C202.808 219.368 202.527 219.327 202.298 219.246C202.076 219.172 201.895 219.076 201.754 218.958C201.621 218.832 201.513 218.706 201.432 218.58H201.232V221.432H199.834ZM202.719 218.147C203.156 218.147 203.515 218.01 203.796 217.737C204.084 217.456 204.229 217.049 204.229 216.516V216.405C204.229 215.872 204.084 215.469 203.796 215.195C203.507 214.914 203.149 214.774 202.719 214.774C202.29 214.774 201.932 214.914 201.643 215.195C201.354 215.469 201.21 215.872 201.21 216.405V216.516C201.21 217.049 201.354 217.456 201.643 217.737C201.932 218.01 202.29 218.147 202.719 218.147ZM206.911 221.432V213.708H208.287V214.374H208.487C208.613 214.16 208.809 213.971 209.075 213.808C209.342 213.638 209.723 213.553 210.218 213.553C210.662 213.553 211.073 213.664 211.45 213.886C211.827 214.1 212.131 214.418 212.36 214.84C212.589 215.262 212.704 215.772 212.704 216.372V216.549C212.704 217.149 212.589 217.659 212.36 218.081C212.131 218.503 211.827 218.824 211.45 219.046C211.073 219.261 210.662 219.368 210.218 219.368C209.885 219.368 209.604 219.327 209.375 219.246C209.153 219.172 208.972 219.076 208.831 218.958C208.698 218.832 208.591 218.706 208.509 218.58H208.309V221.432H206.911ZM209.797 218.147C210.233 218.147 210.592 218.01 210.873 217.737C211.162 217.456 211.306 217.049 211.306 216.516V216.405C211.306 215.872 211.162 215.469 210.873 215.195C210.584 214.914 210.226 214.774 209.797 214.774C209.367 214.774 209.009 214.914 208.72 215.195C208.431 215.469 208.287 215.872 208.287 216.405V216.516C208.287 217.049 208.431 217.456 208.72 217.737C209.009 218.01 209.367 218.147 209.797 218.147Z" fill="black"/>
<circle cx="55.0269" cy="205.311" r="12.9475" fill="#E68A8A"/>
<circle cx="55.0269" cy="205.311" r="7.39858" fill="#540000"/>
<circle cx="311.665" cy="187.739" r="0.924823" fill="#D9D9D9"/>
<circle cx="311.665" cy="191.438" r="0.924823" fill="#D9D9D9"/>
<circle cx="311.665" cy="195.138" r="0.924823" fill="#D9D9D9"/>
<rect x="33.5248" y="178.722" width="287.157" height="52.2525" rx="3.76879" stroke="black" stroke-width="0.462411"/>
<path d="M83.8887 265.019C83.2894 265.019 82.7604 264.912 82.3017 264.697C81.843 264.483 81.4842 264.176 81.2252 263.776C80.9663 263.377 80.8368 262.896 80.8368 262.334V262.023H82.2795V262.334C82.2795 262.8 82.4238 263.151 82.7123 263.388C83.0009 263.617 83.393 263.732 83.8887 263.732C84.3918 263.732 84.7654 263.632 85.0096 263.432C85.2612 263.232 85.3869 262.977 85.3869 262.666C85.3869 262.452 85.324 262.278 85.1983 262.145C85.0799 262.012 84.9023 261.904 84.6656 261.823C84.4362 261.734 84.1551 261.653 83.8221 261.579L83.5669 261.523C83.0342 261.405 82.5755 261.257 82.1907 261.079C81.8134 260.894 81.5212 260.654 81.314 260.358C81.1142 260.062 81.0144 259.677 81.0144 259.204C81.0144 258.73 81.1253 258.327 81.3473 257.994C81.5767 257.654 81.8948 257.395 82.3017 257.217C82.716 257.032 83.2006 256.94 83.7555 256.94C84.3104 256.94 84.8024 257.036 85.2316 257.228C85.6681 257.413 86.0084 257.695 86.2526 258.072C86.5041 258.442 86.6299 258.908 86.6299 259.47V259.803H85.1872V259.47C85.1872 259.174 85.128 258.938 85.0096 258.76C84.8986 258.575 84.7359 258.442 84.5213 258.36C84.3067 258.272 84.0515 258.227 83.7555 258.227C83.3116 258.227 82.9824 258.312 82.7678 258.483C82.5607 258.645 82.4571 258.871 82.4571 259.16C82.4571 259.352 82.5052 259.515 82.6014 259.648C82.7049 259.781 82.8566 259.892 83.0564 259.981C83.2561 260.07 83.5114 260.147 83.8221 260.214L84.0774 260.269C84.6323 260.388 85.1132 260.539 85.5201 260.724C85.9344 260.909 86.2563 261.153 86.4856 261.457C86.715 261.76 86.8297 262.149 86.8297 262.622C86.8297 263.096 86.7076 263.514 86.4634 263.876C86.2267 264.231 85.8863 264.512 85.4424 264.72C85.0059 264.919 84.488 265.019 83.8887 265.019ZM90.0641 264.953C89.635 264.953 89.2576 264.856 88.9321 264.664C88.614 264.464 88.3661 264.191 88.1885 263.843C88.011 263.495 87.9222 263.096 87.9222 262.644V259.359H89.3205V262.533C89.3205 262.948 89.4204 263.258 89.6202 263.465C89.8273 263.673 90.1196 263.776 90.4969 263.776C90.926 263.776 91.2589 263.636 91.4957 263.355C91.7325 263.066 91.8508 262.666 91.8508 262.156V259.359H93.2492V264.864H91.873V264.142H91.6733C91.5845 264.327 91.418 264.509 91.1739 264.686C90.9297 264.864 90.5598 264.953 90.0641 264.953ZM97.391 265.019C96.8583 265.019 96.3737 264.908 95.9372 264.686C95.5081 264.464 95.1677 264.142 94.9162 263.721C94.6646 263.299 94.5389 262.789 94.5389 262.189V262.034C94.5389 261.435 94.6646 260.924 94.9162 260.502C95.1677 260.081 95.5081 259.759 95.9372 259.537C96.3737 259.315 96.8583 259.204 97.391 259.204C97.9163 259.204 98.3676 259.296 98.745 259.481C99.1223 259.666 99.4256 259.922 99.655 260.247C99.8917 260.565 100.047 260.928 100.121 261.335L98.7671 261.623C98.7376 261.401 98.671 261.202 98.5674 261.024C98.4638 260.846 98.3158 260.706 98.1235 260.602C97.9385 260.499 97.7055 260.447 97.4243 260.447C97.1432 260.447 96.8879 260.51 96.6586 260.636C96.4366 260.754 96.259 260.935 96.1259 261.179C96.0001 261.416 95.9372 261.708 95.9372 262.056V262.167C95.9372 262.515 96.0001 262.811 96.1259 263.055C96.259 263.292 96.4366 263.473 96.6586 263.599C96.8879 263.717 97.1432 263.776 97.4243 263.776C97.846 263.776 98.1642 263.669 98.3787 263.454C98.6007 263.232 98.7413 262.944 98.8004 262.589L100.154 262.911C100.058 263.303 99.8917 263.662 99.655 263.987C99.4256 264.305 99.1223 264.557 98.745 264.742C98.3676 264.927 97.9163 265.019 97.391 265.019ZM103.894 265.019C103.361 265.019 102.876 264.908 102.44 264.686C102.011 264.464 101.67 264.142 101.419 263.721C101.167 263.299 101.042 262.789 101.042 262.189V262.034C101.042 261.435 101.167 260.924 101.419 260.502C101.67 260.081 102.011 259.759 102.44 259.537C102.876 259.315 103.361 259.204 103.894 259.204C104.419 259.204 104.87 259.296 105.248 259.481C105.625 259.666 105.928 259.922 106.158 260.247C106.394 260.565 106.55 260.928 106.624 261.335L105.27 261.623C105.24 261.401 105.174 261.202 105.07 261.024C104.966 260.846 104.818 260.706 104.626 260.602C104.441 260.499 104.208 260.447 103.927 260.447C103.646 260.447 103.391 260.51 103.161 260.636C102.939 260.754 102.762 260.935 102.629 261.179C102.503 261.416 102.44 261.708 102.44 262.056V262.167C102.44 262.515 102.503 262.811 102.629 263.055C102.762 263.292 102.939 263.473 103.161 263.599C103.391 263.717 103.646 263.776 103.927 263.776C104.349 263.776 104.667 263.669 104.881 263.454C105.103 263.232 105.244 262.944 105.303 262.589L106.657 262.911C106.561 263.303 106.394 263.662 106.158 263.987C105.928 264.305 105.625 264.557 105.248 264.742C104.87 264.927 104.419 265.019 103.894 265.019ZM110.319 265.019C109.771 265.019 109.287 264.905 108.865 264.675C108.451 264.438 108.125 264.109 107.888 263.687C107.659 263.258 107.544 262.755 107.544 262.178V262.045C107.544 261.468 107.659 260.968 107.888 260.547C108.118 260.118 108.439 259.788 108.854 259.559C109.268 259.322 109.749 259.204 110.296 259.204C110.837 259.204 111.306 259.326 111.706 259.57C112.105 259.807 112.416 260.14 112.638 260.569C112.86 260.991 112.971 261.483 112.971 262.045V262.522H108.965C108.98 262.9 109.12 263.207 109.386 263.443C109.653 263.68 109.978 263.798 110.363 263.798C110.755 263.798 111.044 263.713 111.229 263.543C111.414 263.373 111.554 263.184 111.65 262.977L112.793 263.576C112.69 263.769 112.538 263.98 112.338 264.209C112.146 264.431 111.887 264.623 111.562 264.786C111.236 264.942 110.822 265.019 110.319 265.019ZM108.976 261.479H111.551C111.521 261.161 111.391 260.906 111.162 260.713C110.94 260.521 110.648 260.425 110.285 260.425C109.908 260.425 109.608 260.521 109.386 260.713C109.164 260.906 109.028 261.161 108.976 261.479ZM116.502 265.019C115.784 265.019 115.196 264.864 114.737 264.553C114.279 264.242 114.001 263.798 113.905 263.221L115.192 262.888C115.244 263.147 115.329 263.351 115.448 263.499C115.573 263.647 115.725 263.754 115.903 263.821C116.087 263.88 116.287 263.909 116.502 263.909C116.827 263.909 117.068 263.854 117.223 263.743C117.379 263.625 117.456 263.48 117.456 263.31C117.456 263.14 117.382 263.01 117.234 262.922C117.086 262.826 116.85 262.748 116.524 262.689L116.213 262.633C115.829 262.559 115.477 262.459 115.159 262.334C114.841 262.2 114.586 262.019 114.393 261.79C114.201 261.56 114.105 261.264 114.105 260.902C114.105 260.354 114.304 259.936 114.704 259.648C115.103 259.352 115.629 259.204 116.28 259.204C116.894 259.204 117.404 259.341 117.811 259.615C118.218 259.888 118.485 260.247 118.61 260.691L117.312 261.091C117.253 260.809 117.131 260.61 116.946 260.491C116.768 260.373 116.546 260.314 116.28 260.314C116.014 260.314 115.81 260.362 115.669 260.458C115.529 260.547 115.459 260.673 115.459 260.835C115.459 261.013 115.533 261.146 115.681 261.235C115.829 261.316 116.028 261.379 116.28 261.423L116.591 261.479C117.005 261.553 117.379 261.653 117.711 261.779C118.052 261.897 118.318 262.071 118.511 262.3C118.71 262.522 118.81 262.826 118.81 263.21C118.81 263.787 118.599 264.235 118.178 264.553C117.763 264.864 117.205 265.019 116.502 265.019ZM122.322 265.019C121.604 265.019 121.016 264.864 120.557 264.553C120.098 264.242 119.821 263.798 119.725 263.221L121.012 262.888C121.064 263.147 121.149 263.351 121.267 263.499C121.393 263.647 121.545 263.754 121.722 263.821C121.907 263.88 122.107 263.909 122.322 263.909C122.647 263.909 122.888 263.854 123.043 263.743C123.198 263.625 123.276 263.48 123.276 263.31C123.276 263.14 123.202 263.01 123.054 262.922C122.906 262.826 122.669 262.748 122.344 262.689L122.033 262.633C121.648 262.559 121.297 262.459 120.979 262.334C120.661 262.2 120.405 262.019 120.213 261.79C120.021 261.56 119.925 261.264 119.925 260.902C119.925 260.354 120.124 259.936 120.524 259.648C120.923 259.352 121.449 259.204 122.1 259.204C122.714 259.204 123.224 259.341 123.631 259.615C124.038 259.888 124.305 260.247 124.43 260.691L123.132 261.091C123.073 260.809 122.951 260.61 122.766 260.491C122.588 260.373 122.366 260.314 122.1 260.314C121.833 260.314 121.63 260.362 121.489 260.458C121.349 260.547 121.278 260.673 121.278 260.835C121.278 261.013 121.352 261.146 121.5 261.235C121.648 261.316 121.848 261.379 122.1 261.423L122.41 261.479C122.825 261.553 123.198 261.653 123.531 261.779C123.872 261.897 124.138 262.071 124.33 262.3C124.53 262.522 124.63 262.826 124.63 263.21C124.63 263.787 124.419 264.235 123.997 264.553C123.583 264.864 123.025 265.019 122.322 265.019Z" fill="black"/>
<path d="M81.2363 286.262V280.758H82.6125V281.357H82.8122C82.9084 281.172 83.0675 281.013 83.2894 280.88C83.5114 280.739 83.8036 280.669 84.1662 280.669C84.5583 280.669 84.8727 280.747 85.1095 280.902C85.3462 281.05 85.5275 281.246 85.6533 281.49H85.853C85.9788 281.254 86.1564 281.058 86.3857 280.902C86.6151 280.747 86.9406 280.669 87.3624 280.669C87.7027 280.669 88.0097 280.743 88.2835 280.891C88.5646 281.032 88.7866 281.25 88.9493 281.546C89.1195 281.834 89.2046 282.201 89.2046 282.645V286.262H87.8063V282.744C87.8063 282.441 87.7286 282.215 87.5732 282.067C87.4178 281.912 87.1996 281.834 86.9184 281.834C86.6003 281.834 86.3524 281.938 86.1749 282.145C86.0047 282.345 85.9196 282.633 85.9196 283.011V286.262H84.5213V282.744C84.5213 282.441 84.4436 282.215 84.2882 282.067C84.1329 281.912 83.9146 281.834 83.6335 281.834C83.3153 281.834 83.0675 281.938 82.8899 282.145C82.7197 282.345 82.6347 282.633 82.6347 283.011V286.262H81.2363ZM92.4176 286.418C92.0255 286.418 91.674 286.351 91.3633 286.218C91.0526 286.077 90.8047 285.878 90.6197 285.619C90.4422 285.352 90.3534 285.031 90.3534 284.653C90.3534 284.276 90.4422 283.961 90.6197 283.71C90.8047 283.451 91.0563 283.259 91.3744 283.133C91.6999 283 92.0699 282.933 92.4842 282.933H93.9935V282.622C93.9935 282.363 93.9121 282.153 93.7494 281.99C93.5866 281.82 93.3276 281.734 92.9725 281.734C92.6248 281.734 92.3658 281.816 92.1956 281.979C92.0255 282.134 91.9145 282.337 91.8627 282.589L90.5754 282.156C90.6641 281.875 90.8047 281.62 90.9971 281.39C91.1968 281.154 91.4595 280.965 91.785 280.824C92.118 280.676 92.5212 280.602 92.9947 280.602C93.7198 280.602 94.2931 280.784 94.7149 281.146C95.1366 281.509 95.3474 282.034 95.3474 282.722V284.775C95.3474 284.997 95.451 285.108 95.6582 285.108H96.1021V286.262H95.1699C94.8961 286.262 94.6705 286.196 94.4929 286.063C94.3153 285.929 94.2266 285.752 94.2266 285.53V285.519H94.0157C93.9861 285.608 93.9195 285.726 93.8159 285.874C93.7124 286.015 93.5496 286.14 93.3276 286.251C93.1057 286.362 92.8023 286.418 92.4176 286.418ZM92.6618 285.286C93.0539 285.286 93.372 285.179 93.6162 284.964C93.8677 284.742 93.9935 284.45 93.9935 284.087V283.976H92.5841C92.3251 283.976 92.1217 284.032 91.9737 284.143C91.8257 284.254 91.7517 284.409 91.7517 284.609C91.7517 284.809 91.8294 284.971 91.9848 285.097C92.1402 285.223 92.3658 285.286 92.6618 285.286ZM96.7498 283.532V283.355C96.7498 282.778 96.8644 282.286 97.0938 281.879C97.3232 281.464 97.6265 281.15 98.0038 280.935C98.3885 280.713 98.8066 280.602 99.2579 280.602C99.761 280.602 100.142 280.691 100.401 280.869C100.66 281.046 100.849 281.231 100.967 281.424H101.167V280.758H102.543V287.239C102.543 287.616 102.432 287.916 102.21 288.138C101.988 288.367 101.692 288.482 101.322 288.482H97.6376V287.261H100.834C101.041 287.261 101.145 287.15 101.145 286.928V285.497H100.945C100.871 285.615 100.767 285.737 100.634 285.863C100.501 285.981 100.323 286.081 100.101 286.163C99.8794 286.244 99.5982 286.285 99.2579 286.285C98.8066 286.285 98.3885 286.177 98.0038 285.963C97.6265 285.741 97.3232 285.426 97.0938 285.019C96.8644 284.605 96.7498 284.109 96.7498 283.532ZM99.6574 285.064C100.087 285.064 100.445 284.927 100.734 284.653C101.022 284.379 101.167 283.995 101.167 283.499V283.388C101.167 282.885 101.022 282.5 100.734 282.234C100.453 281.96 100.094 281.823 99.6574 281.823C99.2283 281.823 98.8695 281.96 98.5809 282.234C98.2924 282.5 98.1481 282.885 98.1481 283.388V283.499C98.1481 283.995 98.2924 284.379 98.5809 284.653C98.8695 284.927 99.2283 285.064 99.6574 285.064ZM104.093 286.262V278.494H105.492V286.262H104.093ZM109.549 286.418C109.002 286.418 108.517 286.303 108.095 286.074C107.681 285.837 107.355 285.508 107.119 285.086C106.889 284.657 106.775 284.154 106.775 283.577V283.444C106.775 282.866 106.889 282.367 107.119 281.945C107.348 281.516 107.67 281.187 108.084 280.958C108.499 280.721 108.979 280.602 109.527 280.602C110.067 280.602 110.537 280.725 110.936 280.969C111.336 281.205 111.647 281.538 111.869 281.968C112.091 282.389 112.202 282.881 112.202 283.444V283.921H108.195C108.21 284.298 108.351 284.605 108.617 284.842C108.883 285.079 109.209 285.197 109.594 285.197C109.986 285.197 110.274 285.112 110.459 284.942C110.644 284.772 110.785 284.583 110.881 284.376L112.024 284.975C111.92 285.167 111.769 285.378 111.569 285.608C111.377 285.83 111.118 286.022 110.792 286.185C110.467 286.34 110.052 286.418 109.549 286.418ZM108.206 282.878H110.781C110.751 282.559 110.622 282.304 110.393 282.112C110.171 281.919 109.878 281.823 109.516 281.823C109.139 281.823 108.839 281.919 108.617 282.112C108.395 282.304 108.258 282.559 108.206 282.878ZM114.438 286.262L112.684 280.758H114.171L115.448 285.241H115.647L116.924 280.758H118.411L116.657 286.262H114.438ZM119.211 284.065V282.8H122.496V284.065H119.211ZM124.024 288.482V280.758H125.4V281.424H125.6C125.726 281.209 125.922 281.021 126.188 280.858C126.454 280.688 126.835 280.602 127.331 280.602C127.775 280.602 128.186 280.713 128.563 280.935C128.94 281.15 129.244 281.468 129.473 281.89C129.702 282.312 129.817 282.822 129.817 283.421V283.599C129.817 284.198 129.702 284.709 129.473 285.13C129.244 285.552 128.94 285.874 128.563 286.096C128.186 286.311 127.775 286.418 127.331 286.418C126.998 286.418 126.717 286.377 126.488 286.296C126.266 286.222 126.084 286.126 125.944 286.007C125.811 285.881 125.703 285.756 125.622 285.63H125.422V288.482H124.024ZM126.909 285.197C127.346 285.197 127.705 285.06 127.986 284.786C128.274 284.505 128.419 284.098 128.419 283.566V283.455C128.419 282.922 128.274 282.519 127.986 282.245C127.697 281.964 127.338 281.823 126.909 281.823C126.48 281.823 126.121 281.964 125.833 282.245C125.544 282.519 125.4 282.922 125.4 283.455V283.566C125.4 284.098 125.544 284.505 125.833 284.786C126.121 285.06 126.48 285.197 126.909 285.197ZM131.101 286.262V280.758H132.477V281.379H132.677C132.758 281.157 132.891 280.995 133.076 280.891C133.269 280.787 133.491 280.736 133.742 280.736H134.408V281.979H133.72C133.365 281.979 133.073 282.075 132.843 282.267C132.614 282.452 132.499 282.741 132.499 283.133V286.262H131.101ZM137.925 286.418C137.378 286.418 136.886 286.307 136.449 286.085C136.013 285.863 135.668 285.541 135.417 285.119C135.165 284.698 135.04 284.191 135.04 283.599V283.421C135.04 282.829 135.165 282.323 135.417 281.901C135.668 281.479 136.013 281.157 136.449 280.935C136.886 280.713 137.378 280.602 137.925 280.602C138.473 280.602 138.965 280.713 139.401 280.935C139.838 281.157 140.182 281.479 140.433 281.901C140.685 282.323 140.81 282.829 140.81 283.421V283.599C140.81 284.191 140.685 284.698 140.433 285.119C140.182 285.541 139.838 285.863 139.401 286.085C138.965 286.307 138.473 286.418 137.925 286.418ZM137.925 285.175C138.354 285.175 138.709 285.038 138.99 284.764C139.272 284.483 139.412 284.084 139.412 283.566V283.455C139.412 282.937 139.272 282.541 138.99 282.267C138.717 281.986 138.362 281.845 137.925 281.845C137.496 281.845 137.141 281.986 136.86 282.267C136.579 282.541 136.438 282.937 136.438 283.455V283.566C136.438 284.084 136.579 284.483 136.86 284.764C137.141 285.038 137.496 285.175 137.925 285.175ZM144.321 286.418C143.884 286.418 143.474 286.311 143.089 286.096C142.712 285.874 142.408 285.552 142.179 285.13C141.95 284.709 141.835 284.198 141.835 283.599V283.421C141.835 282.822 141.95 282.312 142.179 281.89C142.408 281.468 142.712 281.15 143.089 280.935C143.466 280.713 143.877 280.602 144.321 280.602C144.654 280.602 144.931 280.643 145.153 280.725C145.382 280.799 145.567 280.895 145.708 281.013C145.849 281.131 145.956 281.257 146.03 281.39H146.23V278.494H147.628V286.262H146.252V285.597H146.052C145.926 285.804 145.73 285.992 145.464 286.163C145.205 286.333 144.824 286.418 144.321 286.418ZM144.743 285.197C145.172 285.197 145.53 285.06 145.819 284.786C146.108 284.505 146.252 284.098 146.252 283.566V283.455C146.252 282.922 146.108 282.519 145.819 282.245C145.538 281.964 145.179 281.823 144.743 281.823C144.313 281.823 143.955 281.964 143.666 282.245C143.377 282.519 143.233 282.922 143.233 283.455V283.566C143.233 284.098 143.377 284.505 143.666 284.786C143.955 285.06 144.313 285.197 144.743 285.197ZM150.055 286.418C149.759 286.418 149.508 286.322 149.3 286.129C149.101 285.929 149.001 285.674 149.001 285.363C149.001 285.053 149.101 284.801 149.3 284.609C149.508 284.409 149.759 284.309 150.055 284.309C150.358 284.309 150.61 284.409 150.81 284.609C151.009 284.801 151.109 285.053 151.109 285.363C151.109 285.674 151.009 285.929 150.81 286.129C150.61 286.322 150.358 286.418 150.055 286.418ZM154.581 286.351C154.152 286.351 153.775 286.255 153.449 286.063C153.131 285.863 152.883 285.589 152.706 285.241C152.528 284.894 152.439 284.494 152.439 284.043V280.758H153.838V283.932C153.838 284.346 153.938 284.657 154.137 284.864C154.345 285.071 154.637 285.175 155.014 285.175C155.443 285.175 155.776 285.034 156.013 284.753C156.25 284.465 156.368 284.065 156.368 283.555V280.758H157.766V286.262H156.39V285.541H156.19C156.102 285.726 155.935 285.907 155.691 286.085C155.447 286.262 155.077 286.351 154.581 286.351ZM159.322 288.482V280.758H160.699V281.424H160.898C161.024 281.209 161.22 281.021 161.487 280.858C161.753 280.688 162.134 280.602 162.63 280.602C163.074 280.602 163.484 280.713 163.861 280.935C164.239 281.15 164.542 281.468 164.771 281.89C165.001 282.312 165.116 282.822 165.116 283.421V283.599C165.116 284.198 165.001 284.709 164.771 285.13C164.542 285.552 164.239 285.874 163.861 286.096C163.484 286.311 163.074 286.418 162.63 286.418C162.297 286.418 162.016 286.377 161.786 286.296C161.564 286.222 161.383 286.126 161.242 286.007C161.109 285.881 161.002 285.756 160.921 285.63H160.721V288.482H159.322ZM162.208 285.197C162.644 285.197 163.003 285.06 163.284 284.786C163.573 284.505 163.717 284.098 163.717 283.566V283.455C163.717 282.922 163.573 282.519 163.284 282.245C162.996 281.964 162.637 281.823 162.208 281.823C161.779 281.823 161.42 281.964 161.131 282.245C160.843 282.519 160.699 282.922 160.699 283.455V283.566C160.699 284.098 160.843 284.505 161.131 284.786C161.42 285.06 161.779 285.197 162.208 285.197ZM167.211 286.418C166.915 286.418 166.664 286.322 166.457 286.129C166.257 285.929 166.157 285.674 166.157 285.363C166.157 285.053 166.257 284.801 166.457 284.609C166.664 284.409 166.915 284.309 167.211 284.309C167.515 284.309 167.766 284.409 167.966 284.609C168.166 284.801 168.266 285.053 168.266 285.363C168.266 285.674 168.166 285.929 167.966 286.129C167.766 286.322 167.515 286.418 167.211 286.418ZM169.64 286.262V280.758H171.016V281.379H171.216C171.297 281.157 171.43 280.995 171.615 280.891C171.808 280.787 172.03 280.736 172.281 280.736H172.947V281.979H172.259C171.904 281.979 171.612 282.075 171.382 282.267C171.153 282.452 171.038 282.741 171.038 283.133V286.262H169.64ZM175.619 286.418C175.227 286.418 174.876 286.351 174.565 286.218C174.254 286.077 174.006 285.878 173.821 285.619C173.644 285.352 173.555 285.031 173.555 284.653C173.555 284.276 173.644 283.961 173.821 283.71C174.006 283.451 174.258 283.259 174.576 283.133C174.901 283 175.271 282.933 175.686 282.933H177.195V282.622C177.195 282.363 177.114 282.153 176.951 281.99C176.788 281.82 176.529 281.734 176.174 281.734C175.826 281.734 175.567 281.816 175.397 281.979C175.227 282.134 175.116 282.337 175.064 282.589L173.777 282.156C173.866 281.875 174.006 281.62 174.199 281.39C174.398 281.154 174.661 280.965 174.987 280.824C175.32 280.676 175.723 280.602 176.196 280.602C176.921 280.602 177.495 280.784 177.916 281.146C178.338 281.509 178.549 282.034 178.549 282.722V284.775C178.549 284.997 178.653 285.108 178.86 285.108H179.304V286.262H178.371C178.098 286.262 177.872 286.196 177.694 286.063C177.517 285.929 177.428 285.752 177.428 285.53V285.519H177.217C177.188 285.608 177.121 285.726 177.017 285.874C176.914 286.015 176.751 286.14 176.529 286.251C176.307 286.362 176.004 286.418 175.619 286.418ZM175.863 285.286C176.255 285.286 176.574 285.179 176.818 284.964C177.069 284.742 177.195 284.45 177.195 284.087V283.976H175.786C175.527 283.976 175.323 284.032 175.175 284.143C175.027 284.254 174.953 284.409 174.953 284.609C174.953 284.809 175.031 284.971 175.186 285.097C175.342 285.223 175.567 285.286 175.863 285.286ZM180.326 286.262V280.758H181.724V286.262H180.326ZM181.025 280.114C180.774 280.114 180.559 280.033 180.382 279.87C180.211 279.707 180.126 279.493 180.126 279.226C180.126 278.96 180.211 278.745 180.382 278.583C180.559 278.42 180.774 278.339 181.025 278.339C181.284 278.339 181.499 278.42 181.669 278.583C181.839 278.745 181.924 278.96 181.924 279.226C181.924 279.493 181.839 279.707 181.669 279.87C181.499 280.033 181.284 280.114 181.025 280.114ZM183.274 286.262V280.758H184.65V281.479H184.85C184.939 281.287 185.105 281.106 185.349 280.935C185.593 280.758 185.963 280.669 186.459 280.669C186.888 280.669 187.262 280.769 187.58 280.969C187.905 281.161 188.157 281.431 188.335 281.779C188.512 282.119 188.601 282.519 188.601 282.977V286.262H187.203V283.088C187.203 282.674 187.099 282.363 186.892 282.156C186.692 281.949 186.404 281.845 186.026 281.845C185.597 281.845 185.264 281.99 185.027 282.278C184.791 282.559 184.672 282.955 184.672 283.466V286.262H183.274ZM190.989 286.418C190.693 286.418 190.442 286.322 190.235 286.129C190.035 285.929 189.935 285.674 189.935 285.363C189.935 285.053 190.035 284.801 190.235 284.609C190.442 284.409 190.693 284.309 190.989 284.309C191.293 284.309 191.544 284.409 191.744 284.609C191.944 284.801 192.044 285.053 192.044 285.363C192.044 285.674 191.944 285.929 191.744 286.129C191.544 286.322 191.293 286.418 190.989 286.418ZM195.127 286.418C194.735 286.418 194.384 286.351 194.073 286.218C193.762 286.077 193.514 285.878 193.329 285.619C193.152 285.352 193.063 285.031 193.063 284.653C193.063 284.276 193.152 283.961 193.329 283.71C193.514 283.451 193.766 283.259 194.084 283.133C194.409 283 194.779 282.933 195.194 282.933H196.703V282.622C196.703 282.363 196.622 282.153 196.459 281.99C196.296 281.82 196.037 281.734 195.682 281.734C195.334 281.734 195.075 281.816 194.905 281.979C194.735 282.134 194.624 282.337 194.572 282.589L193.285 282.156C193.374 281.875 193.514 281.62 193.707 281.39C193.906 281.154 194.169 280.965 194.495 280.824C194.827 280.676 195.231 280.602 195.704 280.602C196.429 280.602 197.003 280.784 197.424 281.146C197.846 281.509 198.057 282.034 198.057 282.722V284.775C198.057 284.997 198.161 285.108 198.368 285.108H198.812V286.262H197.879C197.606 286.262 197.38 286.196 197.202 286.063C197.025 285.929 196.936 285.752 196.936 285.53V285.519H196.725C196.696 285.608 196.629 285.726 196.525 285.874C196.422 286.015 196.259 286.14 196.037 286.251C195.815 286.362 195.512 286.418 195.127 286.418ZM195.371 285.286C195.763 285.286 196.082 285.179 196.326 284.964C196.577 284.742 196.703 284.45 196.703 284.087V283.976H195.294C195.035 283.976 194.831 284.032 194.683 284.143C194.535 284.254 194.461 284.409 194.461 284.609C194.461 284.809 194.539 284.971 194.694 285.097C194.85 285.223 195.075 285.286 195.371 285.286ZM199.834 288.482V280.758H201.21V281.424H201.41C201.536 281.209 201.732 281.021 201.998 280.858C202.264 280.688 202.645 280.602 203.141 280.602C203.585 280.602 203.996 280.713 204.373 280.935C204.75 281.15 205.054 281.468 205.283 281.89C205.512 282.312 205.627 282.822 205.627 283.421V283.599C205.627 284.198 205.512 284.709 205.283 285.13C205.054 285.552 204.75 285.874 204.373 286.096C203.996 286.311 203.585 286.418 203.141 286.418C202.808 286.418 202.527 286.377 202.298 286.296C202.076 286.222 201.895 286.126 201.754 286.007C201.621 285.881 201.513 285.756 201.432 285.63H201.232V288.482H199.834ZM202.719 285.197C203.156 285.197 203.515 285.06 203.796 284.786C204.084 284.505 204.229 284.098 204.229 283.566V283.455C204.229 282.922 204.084 282.519 203.796 282.245C203.507 281.964 203.149 281.823 202.719 281.823C202.29 281.823 201.932 281.964 201.643 282.245C201.354 282.519 201.21 282.922 201.21 283.455V283.566C201.21 284.098 201.354 284.505 201.643 284.786C201.932 285.06 202.29 285.197 202.719 285.197ZM206.911 288.482V280.758H208.287V281.424H208.487C208.613 281.209 208.809 281.021 209.075 280.858C209.342 280.688 209.723 280.602 210.218 280.602C210.662 280.602 211.073 280.713 211.45 280.935C211.827 281.15 212.131 281.468 212.36 281.89C212.589 282.312 212.704 282.822 212.704 283.421V283.599C212.704 284.198 212.589 284.709 212.36 285.13C212.131 285.552 211.827 285.874 211.45 286.096C211.073 286.311 210.662 286.418 210.218 286.418C209.885 286.418 209.604 286.377 209.375 286.296C209.153 286.222 208.972 286.126 208.831 286.007C208.698 285.881 208.591 285.756 208.509 285.63H208.309V288.482H206.911ZM209.797 285.197C210.233 285.197 210.592 285.06 210.873 284.786C211.162 284.505 211.306 284.098 211.306 283.566V283.455C211.306 282.922 211.162 282.519 210.873 282.245C210.584 281.964 210.226 281.823 209.797 281.823C209.367 281.823 209.009 281.964 208.72 282.245C208.431 282.519 208.287 282.922 208.287 283.455V283.566C208.287 284.098 208.431 284.505 208.72 284.786C209.009 285.06 209.367 285.197 209.797 285.197Z" fill="black"/>
<circle cx="55.0269" cy="272.36" r="12.9475" fill="#A1F19A"/>
<circle cx="55.0269" cy="272.36" r="7.39858" fill="#042201"/>
<circle cx="311.665" cy="254.789" r="0.924823" fill="#D9D9D9"/>
<circle cx="311.665" cy="258.488" r="0.924823" fill="#D9D9D9"/>
<circle cx="311.665" cy="262.187" r="0.924823" fill="#D9D9D9"/>
<rect x="33.5248" y="245.772" width="287.157" height="52.2525" rx="3.76879" stroke="black" stroke-width="0.462411"/>
</g>
<rect x="0.435829" y="0.435829" width="350.099" height="325.128" rx="6.96275" stroke="#2624F4" stroke-width="0.871658"/>
<defs>
<clipPath id="clip0_28_755">
<rect width="350.97" height="326" rx="7.39858" fill="white"/>
</clipPath>
</defs>
</svg>
